Dakdam-R.ufo
<glyph name="equal" format="2">
  <advance width="1112"/>
  <unicode hex="003D"/>
  <outline>
    <contour>
      <point x="154" y="969" type="line"/>
      <point x="154" y="778" type="line"/>
      <point x="958" y="778" type="line"/>
      <point x="958" y="969" type="line"/>
    </contour>
    <contour>
      <point x="154" y="545" type="line"/>
      <point x="154" y="352" type="line"/>
      <point x="958" y="352" type="line"/>
      <point x="958" y="545" type="line"/>
    </contour>
  </outline>
</glyph>
<glyph name="uni17A6" format="2">
  <advance width="2008"/>
  <unicode hex="17A6"/>
  <anchor x="1763" y="1793" name="/U"/>
  <anchor x="1763" y="-710" name="L"/>
  <anchor x="1107" y="-710" name="lm"/>
  <anchor x="1025" y="1793" name="um"/>
  <outline>
    <contour>
      <point x="1763" y="-523" type="curve"/>
      <point x="1763" y="950" type="line" smooth="yes"/>
      <point x="1763" y="1015"/>
      <point x="1624" y="1114"/>
      <point x="1504" y="1154" type="curve" smooth="yes"/>
      <point x="1502" y="1155"/>
      <point x="1501" y="1156"/>
      <point x="1501" y="1158" type="curve"/>
      <point x="1501" y="1160" type="line"/>
      <point x="1506" y="1183"/>
      <point x="1521" y="1215"/>
      <point x="1539" y="1227" type="curve" smooth="yes"/>
      <point x="1547" y="1233"/>
      <point x="1557" y="1236"/>
      <point x="1567" y="1236" type="curve" smooth="yes"/>
      <point x="1636" y="1236"/>
      <point x="1669" y="1165"/>
      <point x="1754" y="1165" type="curve" smooth="yes"/>
      <point x="1852" y="1165"/>
      <point x="1936" y="1257"/>
      <point x="1936" y="1453" type="curve" smooth="yes"/>
      <point x="1936" y="1610"/>
      <point x="1838" y="1793"/>
      <point x="1638" y="1793" type="curve" smooth="yes"/>
      <point x="1570" y="1793"/>
      <point x="1531" y="1763"/>
      <point x="1531" y="1713" type="curve" smooth="yes"/>
      <point x="1531" y="1650"/>
      <point x="1575" y="1616"/>
      <point x="1661" y="1589" type="curve" smooth="yes"/>
      <point x="1755" y="1560"/>
      <point x="1847" y="1488"/>
      <point x="1847" y="1390" type="curve" smooth="yes"/>
      <point x="1847" y="1354"/>
      <point x="1842" y="1334"/>
      <point x="1825" y="1334" type="curve" smooth="yes"/>
      <point x="1770" y="1334"/>
      <point x="1685" y="1440"/>
      <point x="1613" y="1440" type="curve" smooth="yes"/>
      <point x="1529" y="1440"/>
      <point x="1426" y="1185"/>
      <point x="1401" y="1081" type="curve"/>
      <point x="1401" y="1079" type="line"/>
      <point x="1401" y="1075"/>
      <point x="1403" y="1070"/>
      <point x="1408" y="1069" type="curve" smooth="yes"/>
      <point x="1513" y="1057"/>
      <point x="1575" y="983"/>
      <point x="1575" y="939" type="curve" smooth="yes"/>
      <point x="1575" y="-515" type="line" smooth="yes"/>
      <point x="1575" y="-570"/>
      <point x="1492" y="-602"/>
      <point x="1406" y="-602" type="curve" smooth="yes"/>
      <point x="1320" y="-602"/>
      <point x="1237" y="-570"/>
      <point x="1237" y="-515" type="curve" smooth="yes"/>
      <point x="1237" y="-336" type="line" smooth="yes"/>
      <point x="1237" y="-236"/>
      <point x="1039" y="-150"/>
      <point x="843" y="-150" type="curve" smooth="yes"/>
      <point x="647" y="-150"/>
      <point x="451" y="-236"/>
      <point x="451" y="-336" type="curve" smooth="yes"/>
      <point x="451" y="-631" type="line"/>
      <point x="462" y="-691"/>
      <point x="536" y="-710"/>
      <point x="604" y="-710" type="curve"/>
      <point x="686" y="-691"/>
      <point x="751" y="-670"/>
      <point x="751" y="-594" type="curve" smooth="yes"/>
      <point x="751" y="-553"/>
      <point x="712" y="-488"/>
      <point x="619" y="-485" type="curve"/>
      <point x="619" y="-353" type="line" smooth="yes"/>
      <point x="619" y="-298"/>
      <point x="757" y="-258"/>
      <point x="843" y="-258" type="curve" smooth="yes"/>
      <point x="929" y="-258"/>
      <point x="1069" y="-298"/>
      <point x="1069" y="-353" type="curve" smooth="yes"/>
      <point x="1069" y="-523" type="line" smooth="yes"/>
      <point x="1069" y="-623"/>
      <point x="1210" y="-710"/>
      <point x="1406" y="-710" type="curve" smooth="yes"/>
      <point x="1602" y="-710"/>
      <point x="1763" y="-623"/>
    </contour>
    <contour>
      <point x="295" y="1255" type="curve"/>
      <point x="295" y="79" type="line"/>
      <point x="320" y="16"/>
      <point x="401" y="0"/>
      <point x="466" y="0" type="curve"/>
      <point x="632" y="31"/>
      <point x="710" y="169"/>
      <point x="710" y="248" type="curve" smooth="yes"/>
      <point x="710" y="376"/>
      <point x="610" y="444"/>
      <point x="483" y="451" type="curve"/>
      <point x="483" y="1237" type="line" smooth="yes"/>
      <point x="483" y="1301"/>
      <point x="685" y="1328"/>
      <point x="763" y="1328" type="curve" smooth="yes"/>
      <point x="841" y="1328"/>
      <point x="1043" y="1301"/>
      <point x="1043" y="1237" type="curve" smooth="yes"/>
      <point x="1043" y="0" type="line"/>
      <point x="1231" y="0" type="line"/>
      <point x="1231" y="1255" type="line" smooth="yes"/>
      <point x="1231" y="1355"/>
      <point x="959" y="1440"/>
      <point x="763" y="1440" type="curve" smooth="yes"/>
      <point x="567" y="1440"/>
      <point x="295" y="1355"/>
    </contour>
    <contour>
      <point x="588" y="257" type="curve" smooth="yes"/>
      <point x="588" y="196"/>
      <point x="534" y="159"/>
      <point x="483" y="137" type="curve"/>
      <point x="483" y="345" type="line"/>
      <point x="531" y="338"/>
      <point x="588" y="307"/>
    </contour>
    <contour>
      <point x="655" y="-591" type="curve" smooth="yes"/>
      <point x="655" y="-609"/>
      <point x="640" y="-617"/>
      <point x="619" y="-623" type="curve"/>
      <point x="619" y="-563" type="line"/>
      <point x="644" y="-566"/>
      <point x="655" y="-578"/>
    </contour>
  </outline>
</glyph>
<glyph name="uni17B6" format="2">
  <advance width="728"/>
  <unicode hex="17B6"/>
  <anchor x="483" y="0" name="L"/>
  <anchor x="483" y="1440" name="U"/>
  <anchor x="70" y="1440" name="um"/>
  <outline>
    <contour>
      <point x="-191" y="1236" type="curve" smooth="yes"/>
      <point x="-122" y="1236"/>
      <point x="185" y="1081"/>
      <point x="256" y="1035" type="curve" smooth="yes"/>
      <point x="273" y="1024"/>
      <point x="295" y="1005"/>
      <point x="295" y="980" type="curve" smooth="yes"/>
      <point x="295" y="0" type="line"/>
      <point x="483" y="0" type="line"/>
      <point x="483" y="1043" type="line" smooth="yes"/>
      <point x="483" y="1104"/>
      <point x="451" y="1149"/>
      <point x="386" y="1192" type="curve" smooth="yes"/>
      <point x="328" y="1230"/>
      <point x="-63" y="1440"/>
      <point x="-135" y="1440" type="curve" smooth="yes"/>
      <point x="-247" y="1440"/>
      <point x="-286" y="1295"/>
      <point x="-296" y="1208" type="curve"/>
      <point x="-261" y="1232"/>
      <point x="-220" y="1236"/>
    </contour>
  </outline>
</glyph>
<glyph name="uni19E0" format="2">
  <advance width="1390"/>
  <unicode hex="19E0"/>
  <outline>
    <contour>
      <point x="437" y="1206" type="curve" smooth="yes"/>
      <point x="437" y="1347"/>
      <point x="554" y="1463"/>
      <point x="694" y="1463" type="curve" smooth="yes"/>
      <point x="835" y="1463"/>
      <point x="950" y="1347"/>
      <point x="950" y="1206" type="curve" smooth="yes"/>
      <point x="950" y="1065"/>
      <point x="835" y="950"/>
      <point x="694" y="950" type="curve" smooth="yes"/>
      <point x="554" y="950"/>
      <point x="437" y="1065"/>
    </contour>
    <contour>
      <point x="273" y="1212" type="curve" smooth="yes"/>
      <point x="273" y="979"/>
      <point x="462" y="790"/>
      <point x="694" y="790" type="curve" smooth="yes"/>
      <point x="927" y="790"/>
      <point x="1116" y="979"/>
      <point x="1116" y="1212" type="curve" smooth="yes"/>
      <point x="1116" y="1444"/>
      <point x="927" y="1633"/>
      <point x="694" y="1633" type="curve" smooth="yes"/>
      <point x="462" y="1633"/>
      <point x="273" y="1444"/>
    </contour>
    <contour>
      <point x="214" y="-674" type="curve" smooth="yes"/>
      <point x="214" y="-1032"/>
      <point x="360" y="-1200"/>
      <point x="475" y="-1200" type="curve"/>
      <point x="589" y="-1200"/>
      <point x="664" y="-1147"/>
      <point x="719" y="-1096" type="curve"/>
      <point x="776" y="-1147"/>
      <point x="855" y="-1200"/>
      <point x="964" y="-1200" type="curve"/>
      <point x="1094" y="-1200"/>
      <point x="1190" y="-918"/>
      <point x="1190" y="-757" type="curve"/>
      <point x="1190" y="-588"/>
      <point x="1102" y="-448"/>
      <point x="930" y="-448" type="curve"/>
      <point x="811" y="-448"/>
      <point x="716" y="-531"/>
      <point x="716" y="-634" type="curve"/>
      <point x="716" y="-689"/>
      <point x="741" y="-780"/>
      <point x="849" y="-780" type="curve"/>
      <point x="924" y="-780"/>
      <point x="982" y="-731"/>
      <point x="982" y="-667" type="curve"/>
      <point x="982" y="-634"/>
      <point x="964" y="-595"/>
      <point x="945" y="-588" type="curve"/>
      <point x="948" y="-584"/>
      <point x="952" y="-580"/>
      <point x="960" y="-580" type="curve" smooth="yes"/>
      <point x="986" y="-580"/>
      <point x="1022" y="-698"/>
      <point x="1022" y="-764" type="curve"/>
      <point x="1022" y="-842"/>
      <point x="986" y="-1046"/>
      <point x="911" y="-1046" type="curve"/>
      <point x="881" y="-1046"/>
      <point x="787" y="-971"/>
      <point x="719" y="-904" type="curve"/>
      <point x="653" y="-971"/>
      <point x="566" y="-1049"/>
      <point x="528" y="-1049" type="curve"/>
      <point x="424" y="-1049"/>
      <point x="402" y="-817"/>
      <point x="402" y="-695" type="curve"/>
      <point x="402" y="-359"/>
      <point x="506" y="-205"/>
      <point x="578" y="-205" type="curve"/>
      <point x="679" y="-205"/>
      <point x="818" y="-284"/>
      <point x="922" y="-284" type="curve"/>
      <point x="1073" y="-284"/>
      <point x="1166" y="-135"/>
      <point x="1166" y="44" type="curve"/>
      <point x="1166" y="105"/>
      <point x="1105" y="240"/>
      <point x="1105" y="308" type="curve"/>
      <point x="1105" y="398"/>
      <point x="1137" y="471"/>
      <point x="1219" y="471" type="curve"/>
      <point x="1184" y="511"/>
      <point x="1156" y="543"/>
      <point x="1080" y="543" type="curve" smooth="yes"/>
      <point x="983" y="543"/>
      <point x="926" y="443"/>
      <point x="926" y="328" type="curve"/>
      <point x="926" y="244"/>
      <point x="979" y="131"/>
      <point x="979" y="48" type="curve"/>
      <point x="979" y="-42"/>
      <point x="960" y="-117"/>
      <point x="881" y="-117" type="curve"/>
      <point x="764" y="-94"/>
      <point x="686" y="-38"/>
      <point x="532" y="-38" type="curve" smooth="yes"/>
      <point x="424" y="-38"/>
      <point x="214" y="-212"/>
    </contour>
  </outline>
</glyph>
<glyph name="uni19E7" format="2">
  <advance width="1840"/>
  <unicode hex="19E7"/>
  <outline>
    <contour>
      <point x="1295" y="620" type="curve" smooth="yes"/>
      <point x="1465" y="620"/>
      <point x="1577" y="714"/>
      <point x="1577" y="807" type="curve" smooth="yes"/>
      <point x="1577" y="2005" type="line" smooth="yes"/>
      <point x="1577" y="2162"/>
      <point x="1521" y="2252"/>
      <point x="1472" y="2296" type="curve" smooth="yes"/>
      <point x="1421" y="2342"/>
      <point x="1375" y="2360"/>
      <point x="1281" y="2360" type="curve" smooth="yes"/>
      <point x="1185" y="2360"/>
      <point x="1109" y="2292"/>
      <point x="1098" y="2249" type="curve"/>
      <point x="1170" y="2275"/>
      <point x="1199" y="2275"/>
      <point x="1221" y="2275" type="curve" smooth="yes"/>
      <point x="1338" y="2275"/>
      <point x="1389" y="2113"/>
      <point x="1389" y="1985" type="curve" smooth="yes"/>
      <point x="1389" y="814" type="line" smooth="yes"/>
      <point x="1389" y="759"/>
      <point x="1339" y="728"/>
      <point x="1295" y="728" type="curve" smooth="yes"/>
      <point x="1251" y="728"/>
      <point x="1201" y="759"/>
      <point x="1201" y="814" type="curve" smooth="yes"/>
      <point x="1201" y="1802" type="line" smooth="yes"/>
      <point x="1201" y="1862"/>
      <point x="1055" y="2060"/>
      <point x="954" y="2060" type="curve" smooth="yes"/>
      <point x="901" y="2060"/>
      <point x="857" y="2016"/>
      <point x="816" y="1970" type="curve" smooth="yes"/>
      <point x="783" y="1933"/>
      <point x="744" y="1896"/>
      <point x="733" y="1896" type="curve" smooth="yes"/>
      <point x="722" y="1896"/>
      <point x="683" y="1933"/>
      <point x="650" y="1970" type="curve" smooth="yes"/>
      <point x="609" y="2016"/>
      <point x="565" y="2060"/>
      <point x="512" y="2060" type="curve" smooth="yes"/>
      <point x="411" y="2060"/>
      <point x="265" y="1862"/>
      <point x="265" y="1802" type="curve" smooth="yes"/>
      <point x="265" y="699" type="line"/>
      <point x="290" y="636"/>
      <point x="371" y="620"/>
      <point x="436" y="620" type="curve"/>
      <point x="602" y="651"/>
      <point x="680" y="789"/>
      <point x="680" y="868" type="curve" smooth="yes"/>
      <point x="680" y="996"/>
      <point x="580" y="1064"/>
      <point x="453" y="1071" type="curve"/>
      <point x="453" y="1765" type="line" smooth="yes"/>
      <point x="453" y="1813"/>
      <point x="509" y="1892"/>
      <point x="534" y="1892" type="curve" smooth="yes"/>
      <point x="538" y="1892"/>
      <point x="574" y="1858"/>
      <point x="606" y="1824" type="curve" smooth="yes"/>
      <point x="643" y="1783"/>
      <point x="684" y="1741"/>
      <point x="733" y="1741" type="curve" smooth="yes"/>
      <point x="782" y="1741"/>
      <point x="823" y="1783"/>
      <point x="860" y="1824" type="curve" smooth="yes"/>
      <point x="892" y="1858"/>
      <point x="928" y="1892"/>
      <point x="932" y="1892" type="curve" smooth="yes"/>
      <point x="957" y="1892"/>
      <point x="1013" y="1813"/>
      <point x="1013" y="1765" type="curve" smooth="yes"/>
      <point x="1013" y="807" type="line" smooth="yes"/>
      <point x="1013" y="714"/>
      <point x="1125" y="620"/>
    </contour>
    <contour>
      <point x="558" y="877" type="curve" smooth="yes"/>
      <point x="558" y="816"/>
      <point x="504" y="779"/>
      <point x="453" y="757" type="curve"/>
      <point x="453" y="965" type="line"/>
      <point x="501" y="958"/>
      <point x="558" y="927"/>
    </contour>
    <contour>
      <point x="1284" y="-1200" type="line"/>
      <point x="1284" y="240" type="line"/>
      <point x="1058" y="240" type="line"/>
      <point x="1058" y="154"/>
      <point x="924" y="-105"/>
      <point x="789" y="-105" type="curve" smooth="yes"/>
      <point x="703" y="-105"/>
      <point x="703" y="4"/>
      <point x="703" y="38" type="curve"/>
      <point x="765" y="50"/>
      <point x="832" y="114"/>
      <point x="832" y="170" type="curve"/>
      <point x="832" y="225"/>
      <point x="792" y="278"/>
      <point x="683" y="278" type="curve"/>
      <point x="559" y="278"/>
      <point x="477" y="178"/>
      <point x="477" y="38" type="curve"/>
      <point x="477" y="-75"/>
      <point x="589" y="-217"/>
      <point x="754" y="-217" type="curve"/>
      <point x="889" y="-217"/>
      <point x="998" y="-116"/>
      <point x="1058" y="-18" type="curve"/>
      <point x="1058" y="-1200" type="line"/>
    </contour>
  </outline>
</glyph>
<glyph name="uni19E9" format="2">
  <advance width="1390"/>
  <unicode hex="19E9"/>
  <outline>
    <contour>
      <point x="224" y="1131" type="curve" smooth="yes"/>
      <point x="224" y="882"/>
      <point x="418" y="620"/>
      <point x="729" y="620" type="curve"/>
      <point x="982" y="620"/>
      <point x="1160" y="792"/>
      <point x="1160" y="1018" type="curve"/>
      <point x="1160" y="1164"/>
      <point x="1068" y="1261"/>
      <point x="904" y="1261" type="curve"/>
      <point x="782" y="1261"/>
      <point x="697" y="1178"/>
      <point x="697" y="1078" type="curve"/>
      <point x="697" y="992"/>
      <point x="742" y="931"/>
      <point x="825" y="931" type="curve"/>
      <point x="900" y="931"/>
      <point x="953" y="980"/>
      <point x="953" y="1044" type="curve"/>
      <point x="953" y="1078"/>
      <point x="936" y="1108"/>
      <point x="906" y="1131" type="curve"/>
      <point x="910" y="1138"/>
      <point x="921" y="1138"/>
      <point x="925" y="1138" type="curve"/>
      <point x="970" y="1138"/>
      <point x="992" y="1063"/>
      <point x="992" y="999" type="curve"/>
      <point x="992" y="889"/>
      <point x="900" y="768"/>
      <point x="733" y="768" type="curve"/>
      <point x="516" y="768"/>
      <point x="392" y="950"/>
      <point x="392" y="1131" type="curve"/>
      <point x="392" y="1307"/>
      <point x="527" y="1447"/>
      <point x="693" y="1447" type="curve"/>
      <point x="789" y="1447"/>
      <point x="846" y="1412"/>
      <point x="890" y="1377" type="curve"/>
      <point x="929" y="1347"/>
      <point x="947" y="1340"/>
      <point x="985" y="1340" type="curve"/>
      <point x="1030" y="1340"/>
      <point x="1061" y="1368"/>
      <point x="1061" y="1404" type="curve"/>
      <point x="1061" y="1453"/>
      <point x="914" y="1576"/>
      <point x="736" y="1595" type="curve"/>
      <point x="682" y="1625"/>
      <point x="542" y="1701"/>
      <point x="542" y="1805" type="curve"/>
      <point x="542" y="1862"/>
      <point x="588" y="1910"/>
      <point x="667" y="1910" type="curve"/>
      <point x="708" y="1910"/>
      <point x="770" y="1877"/>
      <point x="826" y="1827" type="curve"/>
      <point x="881" y="1779"/>
      <point x="932" y="1733"/>
      <point x="989" y="1733" type="curve"/>
      <point x="1061" y="1733"/>
      <point x="1150" y="1772"/>
      <point x="1150" y="1858" type="curve"/>
      <point x="1150" y="1915"/>
      <point x="1126" y="1960"/>
      <point x="1112" y="2005" type="curve"/>
      <point x="1098" y="2041"/>
      <point x="1087" y="2105"/>
      <point x="1087" y="2139" type="curve" smooth="yes"/>
      <point x="1087" y="2230"/>
      <point x="1116" y="2291"/>
      <point x="1199" y="2291" type="curve"/>
      <point x="1166" y="2331"/>
      <point x="1154" y="2363"/>
      <point x="1079" y="2363" type="curve"/>
      <point x="982" y="2363"/>
      <point x="900" y="2263"/>
      <point x="900" y="2158" type="curve"/>
      <point x="900" y="2117"/>
      <point x="914" y="2041"/>
      <point x="929" y="1998" type="curve"/>
      <point x="936" y="1970"/>
      <point x="947" y="1945"/>
      <point x="951" y="1922" type="curve"/>
      <point x="883" y="1985"/>
      <point x="772" y="2060"/>
      <point x="667" y="2060" type="curve"/>
      <point x="493" y="2060"/>
      <point x="374" y="1941"/>
      <point x="374" y="1809" type="curve"/>
      <point x="374" y="1683"/>
      <point x="434" y="1612"/>
      <point x="520" y="1559" type="curve"/>
      <point x="367" y="1505"/>
      <point x="224" y="1329"/>
    </contour>
    <contour>
      <point x="1104" y="-1200" type="line"/>
      <point x="1104" y="240" type="line"/>
      <point x="878" y="240" type="line"/>
      <point x="878" y="154"/>
      <point x="744" y="-105"/>
      <point x="609" y="-105" type="curve" smooth="yes"/>
      <point x="523" y="-105"/>
      <point x="523" y="4"/>
      <point x="523" y="38" type="curve"/>
      <point x="585" y="50"/>
      <point x="652" y="114"/>
      <point x="652" y="170" type="curve"/>
      <point x="652" y="225"/>
      <point x="612" y="278"/>
      <point x="503" y="278" type="curve"/>
      <point x="379" y="278"/>
      <point x="297" y="178"/>
      <point x="297" y="38" type="curve"/>
      <point x="297" y="-75"/>
      <point x="409" y="-217"/>
      <point x="574" y="-217" type="curve"/>
      <point x="709" y="-217"/>
      <point x="818" y="-116"/>
      <point x="878" y="-18" type="curve"/>
      <point x="878" y="-1200" type="line"/>
    </contour>
  </outline>
</glyph>
<glyph name="uni19F0" format="2">
  <advance width="1390"/>
  <unicode hex="19F0"/>
  <outline>
    <contour>
      <point x="214" y="1146" type="curve" smooth="yes"/>
      <point x="214" y="788"/>
      <point x="360" y="620"/>
      <point x="475" y="620" type="curve"/>
      <point x="589" y="620"/>
      <point x="664" y="673"/>
      <point x="719" y="724" type="curve"/>
      <point x="776" y="673"/>
      <point x="855" y="620"/>
      <point x="964" y="620" type="curve"/>
      <point x="1094" y="620"/>
      <point x="1190" y="902"/>
      <point x="1190" y="1063" type="curve"/>
      <point x="1190" y="1232"/>
      <point x="1102" y="1372"/>
      <point x="930" y="1372" type="curve"/>
      <point x="811" y="1372"/>
      <point x="716" y="1289"/>
      <point x="716" y="1186" type="curve"/>
      <point x="716" y="1131"/>
      <point x="741" y="1040"/>
      <point x="849" y="1040" type="curve"/>
      <point x="924" y="1040"/>
      <point x="982" y="1089"/>
      <point x="982" y="1153" type="curve"/>
      <point x="982" y="1186"/>
      <point x="964" y="1225"/>
      <point x="945" y="1232" type="curve"/>
      <point x="948" y="1236"/>
      <point x="952" y="1240"/>
      <point x="960" y="1240" type="curve" smooth="yes"/>
      <point x="986" y="1240"/>
      <point x="1022" y="1122"/>
      <point x="1022" y="1056" type="curve"/>
      <point x="1022" y="978"/>
      <point x="986" y="774"/>
      <point x="911" y="774" type="curve"/>
      <point x="881" y="774"/>
      <point x="787" y="849"/>
      <point x="719" y="916" type="curve"/>
      <point x="653" y="849"/>
      <point x="566" y="771"/>
      <point x="528" y="771" type="curve"/>
      <point x="424" y="771"/>
      <point x="402" y="1003"/>
      <point x="402" y="1125" type="curve"/>
      <point x="402" y="1461"/>
      <point x="506" y="1615"/>
      <point x="578" y="1615" type="curve"/>
      <point x="679" y="1615"/>
      <point x="818" y="1536"/>
      <point x="922" y="1536" type="curve"/>
      <point x="1073" y="1536"/>
      <point x="1166" y="1685"/>
      <point x="1166" y="1864" type="curve"/>
      <point x="1166" y="1925"/>
      <point x="1105" y="2060"/>
      <point x="1105" y="2128" type="curve"/>
      <point x="1105" y="2218"/>
      <point x="1137" y="2291"/>
      <point x="1219" y="2291" type="curve"/>
      <point x="1184" y="2331"/>
      <point x="1156" y="2363"/>
      <point x="1080" y="2363" type="curve" smooth="yes"/>
      <point x="983" y="2363"/>
      <point x="926" y="2263"/>
      <point x="926" y="2148" type="curve"/>
      <point x="926" y="2064"/>
      <point x="979" y="1951"/>
      <point x="979" y="1868" type="curve"/>
      <point x="979" y="1778"/>
      <point x="960" y="1703"/>
      <point x="881" y="1703" type="curve"/>
      <point x="764" y="1726"/>
      <point x="686" y="1782"/>
      <point x="532" y="1782" type="curve" smooth="yes"/>
      <point x="424" y="1782"/>
      <point x="214" y="1608"/>
    </contour>
    <contour>
      <point x="214" y="-674" type="curve" smooth="yes"/>
      <point x="214" y="-1032"/>
      <point x="360" y="-1200"/>
      <point x="475" y="-1200" type="curve"/>
      <point x="589" y="-1200"/>
      <point x="664" y="-1147"/>
      <point x="719" y="-1096" type="curve"/>
      <point x="776" y="-1147"/>
      <point x="855" y="-1200"/>
      <point x="964" y="-1200" type="curve"/>
      <point x="1094" y="-1200"/>
      <point x="1190" y="-918"/>
      <point x="1190" y="-757" type="curve"/>
      <point x="1190" y="-588"/>
      <point x="1102" y="-448"/>
      <point x="930" y="-448" type="curve"/>
      <point x="811" y="-448"/>
      <point x="716" y="-531"/>
      <point x="716" y="-634" type="curve"/>
      <point x="716" y="-689"/>
      <point x="741" y="-780"/>
      <point x="849" y="-780" type="curve"/>
      <point x="924" y="-780"/>
      <point x="982" y="-731"/>
      <point x="982" y="-667" type="curve"/>
      <point x="982" y="-634"/>
      <point x="964" y="-595"/>
      <point x="945" y="-588" type="curve"/>
      <point x="948" y="-584"/>
      <point x="952" y="-580"/>
      <point x="960" y="-580" type="curve" smooth="yes"/>
      <point x="986" y="-580"/>
      <point x="1022" y="-698"/>
      <point x="1022" y="-764" type="curve"/>
      <point x="1022" y="-842"/>
      <point x="986" y="-1046"/>
      <point x="911" y="-1046" type="curve"/>
      <point x="881" y="-1046"/>
      <point x="787" y="-971"/>
      <point x="719" y="-904" type="curve"/>
      <point x="653" y="-971"/>
      <point x="566" y="-1049"/>
      <point x="528" y="-1049" type="curve"/>
      <point x="424" y="-1049"/>
      <point x="402" y="-817"/>
      <point x="402" y="-695" type="curve"/>
      <point x="402" y="-359"/>
      <point x="506" y="-205"/>
      <point x="578" y="-205" type="curve"/>
      <point x="679" y="-205"/>
      <point x="818" y="-284"/>
      <point x="922" y="-284" type="curve"/>
      <point x="1073" y="-284"/>
      <point x="1166" y="-135"/>
      <point x="1166" y="44" type="curve"/>
      <point x="1166" y="105"/>
      <point x="1105" y="240"/>
      <point x="1105" y="308" type="curve"/>
      <point x="1105" y="398"/>
      <point x="1137" y="471"/>
      <point x="1219" y="471" type="curve"/>
      <point x="1184" y="511"/>
      <point x="1156" y="543"/>
      <point x="1080" y="543" type="curve" smooth="yes"/>
      <point x="983" y="543"/>
      <point x="926" y="443"/>
      <point x="926" y="328" type="curve"/>
      <point x="926" y="244"/>
      <point x="979" y="131"/>
      <point x="979" y="48" type="curve"/>
      <point x="979" y="-42"/>
      <point x="960" y="-117"/>
      <point x="881" y="-117" type="curve"/>
      <point x="764" y="-94"/>
      <point x="686" y="-38"/>
      <point x="532" y="-38" type="curve" smooth="yes"/>
      <point x="424" y="-38"/>
      <point x="214" y="-212"/>
    </contour>
  </outline>
</glyph>
<glyph name="uni19F5" format="2">
  <advance width="1390"/>
  <unicode hex="19F5"/>
  <outline>
    <contour>
      <point x="1084" y="620" type="line"/>
      <point x="1084" y="2060" type="line"/>
      <point x="858" y="2060" type="line"/>
      <point x="858" y="1974"/>
      <point x="724" y="1715"/>
      <point x="589" y="1715" type="curve" smooth="yes"/>
      <point x="503" y="1715"/>
      <point x="503" y="1824"/>
      <point x="503" y="1858" type="curve"/>
      <point x="565" y="1870"/>
      <point x="632" y="1934"/>
      <point x="632" y="1990" type="curve"/>
      <point x="632" y="2045"/>
      <point x="592" y="2098"/>
      <point x="483" y="2098" type="curve"/>
      <point x="359" y="2098"/>
      <point x="277" y="1998"/>
      <point x="277" y="1858" type="curve"/>
      <point x="277" y="1745"/>
      <point x="389" y="1603"/>
      <point x="554" y="1603" type="curve"/>
      <point x="689" y="1603"/>
      <point x="798" y="1704"/>
      <point x="858" y="1802" type="curve"/>
      <point x="858" y="620" type="line"/>
    </contour>
    <contour>
      <point x="208" y="-670" type="curve" smooth="yes"/>
      <point x="208" y="-1064"/>
      <point x="355" y="-1200"/>
      <point x="472" y="-1200" type="curve"/>
      <point x="506" y="-1200"/>
      <point x="551" y="-1193"/>
      <point x="591" y="-1186" type="curve"/>
      <point x="638" y="-1177"/>
      <point x="681" y="-1170"/>
      <point x="716" y="-1170" type="curve"/>
      <point x="783" y="-1170"/>
      <point x="862" y="-1180"/>
      <point x="927" y="-1190" type="curve"/>
      <point x="971" y="-1196"/>
      <point x="1006" y="-1200"/>
      <point x="1032" y="-1200" type="curve"/>
      <point x="1092" y="-1200"/>
      <point x="1106" y="-1167"/>
      <point x="1106" y="-1151" type="curve"/>
      <point x="1106" y="-1092"/>
      <point x="1051" y="-1024"/>
      <point x="993" y="-954" type="curve"/>
      <point x="936" y="-885"/>
      <point x="878" y="-806"/>
      <point x="878" y="-727" type="curve"/>
      <point x="878" y="-656"/>
      <point x="895" y="-580"/>
      <point x="933" y="-580" type="curve"/>
      <point x="940" y="-580"/>
      <point x="948" y="-584"/>
      <point x="952" y="-591" type="curve"/>
      <point x="929" y="-616"/>
      <point x="921" y="-642"/>
      <point x="921" y="-667" type="curve"/>
      <point x="921" y="-731"/>
      <point x="977" y="-780"/>
      <point x="1052" y="-780" type="curve"/>
      <point x="1123" y="-780"/>
      <point x="1182" y="-742"/>
      <point x="1182" y="-642" type="curve"/>
      <point x="1182" y="-540"/>
      <point x="1095" y="-461"/>
      <point x="973" y="-461" type="curve"/>
      <point x="801" y="-461"/>
      <point x="710" y="-570"/>
      <point x="710" y="-720" type="curve"/>
      <point x="710" y="-817"/>
      <point x="766" y="-953"/>
      <point x="874" y="-1053" type="curve"/>
      <point x="824" y="-1046"/>
      <point x="731" y="-1042"/>
      <point x="706" y="-1042" type="curve"/>
      <point x="681" y="-1042"/>
      <point x="652" y="-1046"/>
      <point x="619" y="-1050" type="curve"/>
      <point x="591" y="-1053"/>
      <point x="520" y="-1061"/>
      <point x="509" y="-1061" type="curve" smooth="yes"/>
      <point x="450" y="-1061"/>
      <point x="396" y="-846"/>
      <point x="396" y="-689" type="curve"/>
      <point x="396" y="-510"/>
      <point x="540" y="-326"/>
      <point x="612" y="-237" type="curve"/>
      <point x="627" y="-216"/>
      <point x="641" y="-198"/>
      <point x="645" y="-190" type="curve"/>
      <point x="978" y="-190"/>
      <point x="1164" y="-161"/>
      <point x="1164" y="42" type="curve"/>
      <point x="1164" y="82"/>
      <point x="1147" y="136"/>
      <point x="1131" y="185" type="curve"/>
      <point x="1117" y="229"/>
      <point x="1103" y="274"/>
      <point x="1103" y="311" type="curve"/>
      <point x="1103" y="402"/>
      <point x="1136" y="481"/>
      <point x="1218" y="481" type="curve"/>
      <point x="1193" y="508"/>
      <point x="1164" y="540"/>
      <point x="1077" y="540" type="curve"/>
      <point x="985" y="540"/>
      <point x="930" y="429"/>
      <point x="930" y="308" type="curve"/>
      <point x="930" y="264"/>
      <point x="941" y="218"/>
      <point x="953" y="178" type="curve"/>
      <point x="964" y="132"/>
      <point x="974" y="91"/>
      <point x="974" y="46" type="curve"/>
      <point x="974" y="-41"/>
      <point x="841" y="-55"/>
      <point x="719" y="-55" type="curve"/>
      <point x="731" y="-29"/>
      <point x="734" y="4"/>
      <point x="734" y="16" type="curve"/>
      <point x="734" y="136"/>
      <point x="638" y="240"/>
      <point x="509" y="240" type="curve"/>
      <point x="383" y="240"/>
      <point x="284" y="136"/>
      <point x="284" y="16" type="curve"/>
      <point x="284" y="-79"/>
      <point x="340" y="-141"/>
      <point x="438" y="-190" type="curve"/>
      <point x="408" y="-220"/>
      <point x="208" y="-469"/>
    </contour>
    <contour>
      <point x="454" y="16" type="curve" smooth="yes"/>
      <point x="454" y="57"/>
      <point x="480" y="91"/>
      <point x="509" y="91" type="curve"/>
      <point x="540" y="91"/>
      <point x="566" y="57"/>
      <point x="566" y="16" type="curve"/>
      <point x="566" y="-26"/>
      <point x="540" y="-58"/>
      <point x="509" y="-58" type="curve"/>
      <point x="480" y="-58"/>
      <point x="454" y="-26"/>
    </contour>
  </outline>
</glyph>
<glyph name="uni19F9" format="2">
  <advance width="1390"/>
  <unicode hex="19F9"/>
  <outline>
    <contour>
      <point x="1104" y="620" type="line"/>
      <point x="1104" y="2060" type="line"/>
      <point x="878" y="2060" type="line"/>
      <point x="878" y="1974"/>
      <point x="744" y="1715"/>
      <point x="609" y="1715" type="curve" smooth="yes"/>
      <point x="523" y="1715"/>
      <point x="523" y="1824"/>
      <point x="523" y="1858" type="curve"/>
      <point x="585" y="1870"/>
      <point x="652" y="1934"/>
      <point x="652" y="1990" type="curve"/>
      <point x="652" y="2045"/>
      <point x="612" y="2098"/>
      <point x="503" y="2098" type="curve"/>
      <point x="379" y="2098"/>
      <point x="297" y="1998"/>
      <point x="297" y="1858" type="curve"/>
      <point x="297" y="1745"/>
      <point x="409" y="1603"/>
      <point x="574" y="1603" type="curve"/>
      <point x="709" y="1603"/>
      <point x="818" y="1704"/>
      <point x="878" y="1802" type="curve"/>
      <point x="878" y="620" type="line"/>
    </contour>
    <contour>
      <point x="224" y="-689" type="curve" smooth="yes"/>
      <point x="224" y="-938"/>
      <point x="418" y="-1200"/>
      <point x="729" y="-1200" type="curve"/>
      <point x="982" y="-1200"/>
      <point x="1160" y="-1028"/>
      <point x="1160" y="-802" type="curve"/>
      <point x="1160" y="-656"/>
      <point x="1068" y="-559"/>
      <point x="904" y="-559" type="curve"/>
      <point x="782" y="-559"/>
      <point x="697" y="-642"/>
      <point x="697" y="-742" type="curve"/>
      <point x="697" y="-828"/>
      <point x="742" y="-889"/>
      <point x="825" y="-889" type="curve"/>
      <point x="900" y="-889"/>
      <point x="953" y="-840"/>
      <point x="953" y="-776" type="curve"/>
      <point x="953" y="-742"/>
      <point x="936" y="-712"/>
      <point x="906" y="-689" type="curve"/>
      <point x="910" y="-682"/>
      <point x="921" y="-682"/>
      <point x="925" y="-682" type="curve"/>
      <point x="970" y="-682"/>
      <point x="992" y="-757"/>
      <point x="992" y="-821" type="curve"/>
      <point x="992" y="-931"/>
      <point x="900" y="-1052"/>
      <point x="733" y="-1052" type="curve"/>
      <point x="516" y="-1052"/>
      <point x="392" y="-870"/>
      <point x="392" y="-689" type="curve"/>
      <point x="392" y="-513"/>
      <point x="527" y="-373"/>
      <point x="693" y="-373" type="curve"/>
      <point x="789" y="-373"/>
      <point x="846" y="-408"/>
      <point x="890" y="-443" type="curve"/>
      <point x="929" y="-473"/>
      <point x="947" y="-480"/>
      <point x="985" y="-480" type="curve"/>
      <point x="1030" y="-480"/>
      <point x="1061" y="-452"/>
      <point x="1061" y="-416" type="curve"/>
      <point x="1061" y="-367"/>
      <point x="914" y="-244"/>
      <point x="736" y="-225" type="curve"/>
      <point x="682" y="-195"/>
      <point x="542" y="-119"/>
      <point x="542" y="-15" type="curve"/>
      <point x="542" y="42"/>
      <point x="588" y="90"/>
      <point x="667" y="90" type="curve"/>
      <point x="708" y="90"/>
      <point x="770" y="57"/>
      <point x="826" y="7" type="curve"/>
      <point x="881" y="-41"/>
      <point x="932" y="-87"/>
      <point x="989" y="-87" type="curve"/>
      <point x="1061" y="-87"/>
      <point x="1150" y="-48"/>
      <point x="1150" y="38" type="curve"/>
      <point x="1150" y="95"/>
      <point x="1126" y="140"/>
      <point x="1112" y="185" type="curve"/>
      <point x="1098" y="221"/>
      <point x="1087" y="285"/>
      <point x="1087" y="319" type="curve" smooth="yes"/>
      <point x="1087" y="410"/>
      <point x="1116" y="471"/>
      <point x="1199" y="471" type="curve"/>
      <point x="1166" y="511"/>
      <point x="1154" y="543"/>
      <point x="1079" y="543" type="curve"/>
      <point x="982" y="543"/>
      <point x="900" y="443"/>
      <point x="900" y="338" type="curve"/>
      <point x="900" y="297"/>
      <point x="914" y="221"/>
      <point x="929" y="178" type="curve"/>
      <point x="936" y="150"/>
      <point x="947" y="125"/>
      <point x="951" y="102" type="curve"/>
      <point x="883" y="165"/>
      <point x="772" y="240"/>
      <point x="667" y="240" type="curve"/>
      <point x="493" y="240"/>
      <point x="374" y="121"/>
      <point x="374" y="-11" type="curve"/>
      <point x="374" y="-137"/>
      <point x="434" y="-208"/>
      <point x="520" y="-261" type="curve"/>
      <point x="367" y="-315"/>
      <point x="224" y="-491"/>
    </contour>
  </outline>
</glyph>
<glyph name="uni19FC" format="2">
  <advance width="3200"/>
  <unicode hex="19FC"/>
  <outline>
    <contour>
      <point x="1984" y="620" type="line"/>
      <point x="1984" y="2060" type="line"/>
      <point x="1758" y="2060" type="line"/>
      <point x="1758" y="1974"/>
      <point x="1624" y="1715"/>
      <point x="1489" y="1715" type="curve" smooth="yes"/>
      <point x="1403" y="1715"/>
      <point x="1403" y="1824"/>
      <point x="1403" y="1858" type="curve"/>
      <point x="1465" y="1870"/>
      <point x="1532" y="1934"/>
      <point x="1532" y="1990" type="curve"/>
      <point x="1532" y="2045"/>
      <point x="1492" y="2098"/>
      <point x="1383" y="2098" type="curve"/>
      <point x="1259" y="2098"/>
      <point x="1177" y="1998"/>
      <point x="1177" y="1858" type="curve"/>
      <point x="1177" y="1745"/>
      <point x="1289" y="1603"/>
      <point x="1454" y="1603" type="curve"/>
      <point x="1589" y="1603"/>
      <point x="1698" y="1704"/>
      <point x="1758" y="1802" type="curve"/>
      <point x="1758" y="620" type="line"/>
    </contour>
    <contour>
      <point x="640" y="-591" type="curve" smooth="yes"/>
      <point x="776" y="-591"/>
      <point x="899" y="-491"/>
      <point x="899" y="-359" type="curve"/>
      <point x="899" y="-258"/>
      <point x="836" y="-205"/>
      <point x="751" y="-205" type="curve"/>
      <point x="665" y="-205"/>
      <point x="643" y="-254"/>
      <point x="643" y="-284" type="curve"/>
      <point x="643" y="-326"/>
      <point x="663" y="-363"/>
      <point x="731" y="-363" type="curve"/>
      <point x="731" y="-420"/>
      <point x="689" y="-461"/>
      <point x="644" y="-461" type="curve"/>
      <point x="535" y="-461"/>
      <point x="466" y="-348"/>
      <point x="466" y="-216" type="curve"/>
      <point x="466" y="-3"/>
      <point x="606" y="112"/>
      <point x="748" y="112" type="curve"/>
      <point x="914" y="112"/>
      <point x="1066" y="-44"/>
      <point x="1066" y="-442" type="curve"/>
      <point x="1066" y="-768"/>
      <point x="815" y="-1128"/>
      <point x="486" y="-1128" type="curve"/>
      <point x="463" y="-1128"/>
      <point x="446" y="-1128"/>
      <point x="425" y="-1125" type="curve"/>
      <point x="471" y="-1174"/>
      <point x="550" y="-1200"/>
      <point x="632" y="-1200" type="curve"/>
      <point x="921" y="-1200"/>
      <point x="1254" y="-855"/>
      <point x="1254" y="-423" type="curve"/>
      <point x="1254" y="38"/>
      <point x="1000" y="240"/>
      <point x="748" y="240" type="curve"/>
      <point x="474" y="240"/>
      <point x="286" y="56"/>
      <point x="286" y="-180" type="curve"/>
      <point x="286" y="-405"/>
      <point x="418" y="-591"/>
    </contour>
    <contour>
      <point x="2659" y="-997" type="line"/>
      <point x="2659" y="-1052"/>
      <point x="2353" y="-1089"/>
      <point x="2225" y="-1089" type="curve" smooth="yes"/>
      <point x="2097" y="-1089"/>
      <point x="1791" y="-1052"/>
      <point x="1791" y="-997" type="curve" smooth="yes"/>
      <point x="1791" y="185" type="line" smooth="yes"/>
      <point x="1791" y="336"/>
      <point x="1711" y="446"/>
      <point x="1663" y="492" type="curve"/>
      <point x="1632" y="518"/>
      <point x="1588" y="543"/>
      <point x="1485" y="543" type="curve" smooth="yes"/>
      <point x="1403" y="543"/>
      <point x="1328" y="475"/>
      <point x="1317" y="432" type="curve"/>
      <point x="1388" y="458"/>
      <point x="1417" y="458"/>
      <point x="1441" y="458" type="curve" smooth="yes"/>
      <point x="1557" y="458"/>
      <point x="1603" y="257"/>
      <point x="1603" y="165" type="curve" smooth="yes"/>
      <point x="1603" y="-1036" type="line" smooth="yes"/>
      <point x="1603" y="-1136"/>
      <point x="1977" y="-1200"/>
      <point x="2225" y="-1200" type="curve" smooth="yes"/>
      <point x="2473" y="-1200"/>
      <point x="2847" y="-1136"/>
      <point x="2847" y="-1036" type="curve" smooth="yes"/>
      <point x="2847" y="-18" type="line" smooth="yes"/>
      <point x="2847" y="42"/>
      <point x="2701" y="240"/>
      <point x="2600" y="240" type="curve" smooth="yes"/>
      <point x="2547" y="240"/>
      <point x="2503" y="196"/>
      <point x="2462" y="150" type="curve" smooth="yes"/>
      <point x="2429" y="113"/>
      <point x="2390" y="76"/>
      <point x="2379" y="76" type="curve" smooth="yes"/>
      <point x="2368" y="76"/>
      <point x="2329" y="113"/>
      <point x="2296" y="150" type="curve" smooth="yes"/>
      <point x="2255" y="196"/>
      <point x="2211" y="240"/>
      <point x="2158" y="240" type="curve" smooth="yes"/>
      <point x="2057" y="240"/>
      <point x="1911" y="42"/>
      <point x="1911" y="-18" type="curve" smooth="yes"/>
      <point x="1911" y="-601" type="line"/>
      <point x="1936" y="-664"/>
      <point x="2017" y="-680"/>
      <point x="2082" y="-680" type="curve"/>
      <point x="2248" y="-649"/>
      <point x="2326" y="-511"/>
      <point x="2326" y="-432" type="curve" smooth="yes"/>
      <point x="2326" y="-304"/>
      <point x="2226" y="-236"/>
      <point x="2099" y="-229" type="curve"/>
      <point x="2099" y="-55" type="line" smooth="yes"/>
      <point x="2099" y="-7"/>
      <point x="2155" y="72"/>
      <point x="2180" y="72" type="curve" smooth="yes"/>
      <point x="2184" y="72"/>
      <point x="2220" y="38"/>
      <point x="2252" y="4" type="curve" smooth="yes"/>
      <point x="2289" y="-37"/>
      <point x="2330" y="-79"/>
      <point x="2379" y="-79" type="curve" smooth="yes"/>
      <point x="2428" y="-79"/>
      <point x="2469" y="-37"/>
      <point x="2506" y="4" type="curve" smooth="yes"/>
      <point x="2538" y="38"/>
      <point x="2574" y="72"/>
      <point x="2578" y="72" type="curve" smooth="yes"/>
      <point x="2603" y="72"/>
      <point x="2659" y="-7"/>
      <point x="2659" y="-55" type="curve" smooth="yes"/>
    </contour>
    <contour>
      <point x="2204" y="-423" type="curve" smooth="yes"/>
      <point x="2204" y="-484"/>
      <point x="2150" y="-521"/>
      <point x="2099" y="-543" type="curve"/>
      <point x="2099" y="-335" type="line"/>
      <point x="2147" y="-342"/>
      <point x="2204" y="-373"/>
    </contour>
  </outline>
</glyph>
<glyph name="uni19FE" format="2">
  <advance width="2660"/>
  <unicode hex="19FE"/>
  <outline>
    <contour>
      <point x="1694" y="620" type="line"/>
      <point x="1694" y="2060" type="line"/>
      <point x="1468" y="2060" type="line"/>
      <point x="1468" y="1974"/>
      <point x="1334" y="1715"/>
      <point x="1199" y="1715" type="curve" smooth="yes"/>
      <point x="1113" y="1715"/>
      <point x="1113" y="1824"/>
      <point x="1113" y="1858" type="curve"/>
      <point x="1175" y="1870"/>
      <point x="1242" y="1934"/>
      <point x="1242" y="1990" type="curve"/>
      <point x="1242" y="2045"/>
      <point x="1202" y="2098"/>
      <point x="1093" y="2098" type="curve"/>
      <point x="969" y="2098"/>
      <point x="887" y="1998"/>
      <point x="887" y="1858" type="curve"/>
      <point x="887" y="1745"/>
      <point x="999" y="1603"/>
      <point x="1164" y="1603" type="curve"/>
      <point x="1299" y="1603"/>
      <point x="1408" y="1704"/>
      <point x="1468" y="1802" type="curve"/>
      <point x="1468" y="620" type="line"/>
    </contour>
    <contour>
      <point x="640" y="-591" type="curve" smooth="yes"/>
      <point x="776" y="-591"/>
      <point x="899" y="-491"/>
      <point x="899" y="-359" type="curve"/>
      <point x="899" y="-258"/>
      <point x="836" y="-205"/>
      <point x="751" y="-205" type="curve"/>
      <point x="665" y="-205"/>
      <point x="643" y="-254"/>
      <point x="643" y="-284" type="curve"/>
      <point x="643" y="-326"/>
      <point x="663" y="-363"/>
      <point x="731" y="-363" type="curve"/>
      <point x="731" y="-420"/>
      <point x="689" y="-461"/>
      <point x="644" y="-461" type="curve"/>
      <point x="535" y="-461"/>
      <point x="466" y="-348"/>
      <point x="466" y="-216" type="curve"/>
      <point x="466" y="-3"/>
      <point x="606" y="112"/>
      <point x="748" y="112" type="curve"/>
      <point x="914" y="112"/>
      <point x="1066" y="-44"/>
      <point x="1066" y="-442" type="curve"/>
      <point x="1066" y="-768"/>
      <point x="815" y="-1128"/>
      <point x="486" y="-1128" type="curve"/>
      <point x="463" y="-1128"/>
      <point x="446" y="-1128"/>
      <point x="425" y="-1125" type="curve"/>
      <point x="471" y="-1174"/>
      <point x="550" y="-1200"/>
      <point x="632" y="-1200" type="curve"/>
      <point x="921" y="-1200"/>
      <point x="1254" y="-855"/>
      <point x="1254" y="-423" type="curve"/>
      <point x="1254" y="38"/>
      <point x="1000" y="240"/>
      <point x="748" y="240" type="curve"/>
      <point x="474" y="240"/>
      <point x="286" y="56"/>
      <point x="286" y="-180" type="curve"/>
      <point x="286" y="-405"/>
      <point x="418" y="-591"/>
    </contour>
    <contour>
      <point x="1418" y="-670" type="curve" smooth="yes"/>
      <point x="1418" y="-1064"/>
      <point x="1565" y="-1200"/>
      <point x="1682" y="-1200" type="curve"/>
      <point x="1716" y="-1200"/>
      <point x="1761" y="-1193"/>
      <point x="1801" y="-1186" type="curve"/>
      <point x="1848" y="-1177"/>
      <point x="1891" y="-1170"/>
      <point x="1926" y="-1170" type="curve"/>
      <point x="1993" y="-1170"/>
      <point x="2072" y="-1180"/>
      <point x="2137" y="-1190" type="curve"/>
      <point x="2181" y="-1196"/>
      <point x="2216" y="-1200"/>
      <point x="2242" y="-1200" type="curve"/>
      <point x="2302" y="-1200"/>
      <point x="2316" y="-1167"/>
      <point x="2316" y="-1151" type="curve"/>
      <point x="2316" y="-1092"/>
      <point x="2261" y="-1024"/>
      <point x="2203" y="-954" type="curve"/>
      <point x="2146" y="-885"/>
      <point x="2088" y="-806"/>
      <point x="2088" y="-727" type="curve"/>
      <point x="2088" y="-656"/>
      <point x="2105" y="-580"/>
      <point x="2143" y="-580" type="curve"/>
      <point x="2150" y="-580"/>
      <point x="2158" y="-584"/>
      <point x="2162" y="-591" type="curve"/>
      <point x="2139" y="-616"/>
      <point x="2132" y="-642"/>
      <point x="2132" y="-667" type="curve"/>
      <point x="2132" y="-731"/>
      <point x="2187" y="-780"/>
      <point x="2262" y="-780" type="curve"/>
      <point x="2333" y="-780"/>
      <point x="2392" y="-742"/>
      <point x="2392" y="-642" type="curve"/>
      <point x="2392" y="-540"/>
      <point x="2305" y="-461"/>
      <point x="2183" y="-461" type="curve"/>
      <point x="2011" y="-461"/>
      <point x="1920" y="-570"/>
      <point x="1920" y="-720" type="curve"/>
      <point x="1920" y="-817"/>
      <point x="1976" y="-953"/>
      <point x="2084" y="-1053" type="curve"/>
      <point x="2034" y="-1046"/>
      <point x="1941" y="-1042"/>
      <point x="1916" y="-1042" type="curve"/>
      <point x="1891" y="-1042"/>
      <point x="1862" y="-1046"/>
      <point x="1829" y="-1050" type="curve"/>
      <point x="1801" y="-1053"/>
      <point x="1730" y="-1061"/>
      <point x="1719" y="-1061" type="curve" smooth="yes"/>
      <point x="1652" y="-1061"/>
      <point x="1606" y="-846"/>
      <point x="1606" y="-689" type="curve"/>
      <point x="1606" y="-506"/>
      <point x="1772" y="-330"/>
      <point x="1927" y="-210" type="curve"/>
      <point x="2087" y="-86"/>
      <point x="2302" y="82"/>
      <point x="2302" y="249" type="curve"/>
      <point x="2302" y="394"/>
      <point x="2249" y="455"/>
      <point x="2151" y="504" type="curve" smooth="yes"/>
      <point x="2106" y="526"/>
      <point x="2051" y="536"/>
      <point x="1987" y="540" type="curve"/>
      <point x="2087" y="489"/>
      <point x="2117" y="361"/>
      <point x="2117" y="289" type="curve"/>
      <point x="2117" y="140"/>
      <point x="1944" y="12"/>
      <point x="1790" y="-104" type="curve"/>
      <point x="1629" y="-225"/>
      <point x="1418" y="-446"/>
    </contour>
  </outline>
</glyph>
<glyph name="uni178117C5.right" format="2">
  <advance width="2086"/>
  <anchor x="1193" y="0" name="L1"/>
  <anchor x="1841" y="0" name="L2"/>
  <anchor x="1193" y="1440" name="U1"/>
  <anchor x="1841" y="1922" name="U2"/>
  <anchor x="697" y="0" name="lm"/>
  <anchor x="680" y="1440" name="um"/>
  <anchor x="1423" y="1922" name="um2"/>
  <outline>
    <contour>
      <point x="1653" y="1792" type="curve"/>
      <point x="1653" y="1410" type="line" smooth="yes"/>
      <point x="1653" y="1352"/>
      <point x="1629" y="1307"/>
      <point x="1596" y="1261" type="curve"/>
      <point x="1737" y="1170" type="line"/>
      <point x="1800" y="1257"/>
      <point x="1841" y="1323"/>
      <point x="1841" y="1410" type="curve" smooth="yes"/>
      <point x="1841" y="1788" type="line" smooth="yes"/>
      <point x="1841" y="1858"/>
      <point x="1753" y="1922"/>
      <point x="1670" y="1922" type="curve" smooth="yes"/>
      <point x="1599" y="1922"/>
      <point x="1569" y="1908"/>
      <point x="1542" y="1893" type="curve"/>
      <point x="1617" y="1893"/>
      <point x="1653" y="1825"/>
    </contour>
    <contour>
      <point x="1331" y="1236" type="curve" smooth="yes"/>
      <point x="1400" y="1236"/>
      <point x="1542" y="1131"/>
      <point x="1613" y="1075" type="curve" smooth="yes"/>
      <point x="1630" y="1062"/>
      <point x="1652" y="1045"/>
      <point x="1652" y="1020" type="curve" smooth="yes"/>
      <point x="1652" y="0" type="line"/>
      <point x="1840" y="0" type="line"/>
      <point x="1840" y="1083" type="line" smooth="yes"/>
      <point x="1840" y="1144"/>
      <point x="1804" y="1184"/>
      <point x="1743" y="1232" type="curve" smooth="yes"/>
      <point x="1685" y="1278"/>
      <point x="1459" y="1440"/>
      <point x="1387" y="1440" type="curve" smooth="yes"/>
      <point x="1317" y="1440"/>
      <point x="1232" y="1372"/>
      <point x="1066" y="1199" type="curve" smooth="yes"/>
      <point x="959" y="1087"/>
      <point x="1045" y="1036"/>
      <point x="1097" y="1088" type="curve" smooth="yes"/>
      <point x="1187" y="1178"/>
      <point x="1282" y="1236"/>
    </contour>
    <contour>
      <point x="1193" y="1024" type="curve" smooth="yes"/>
      <point x="1193" y="1295"/>
      <point x="982" y="1440"/>
      <point x="670" y="1440" type="curve" smooth="yes"/>
      <point x="474" y="1440"/>
      <point x="218" y="1332"/>
      <point x="218" y="1118" type="curve" smooth="yes"/>
      <point x="218" y="1016"/>
      <point x="254" y="949"/>
      <point x="333" y="888" type="curve"/>
      <point x="371" y="863"/>
      <point x="413" y="852"/>
      <point x="469" y="852" type="curve" smooth="yes"/>
      <point x="558" y="852"/>
      <point x="634" y="905"/>
      <point x="634" y="984" type="curve" smooth="yes"/>
      <point x="634" y="1039"/>
      <point x="581" y="1078"/>
      <point x="515" y="1078" type="curve" smooth="yes"/>
      <point x="473" y="1078"/>
      <point x="444" y="1067"/>
      <point x="417" y="1046" type="curve"/>
      <point x="410" y="1063"/>
      <point x="406" y="1088"/>
      <point x="406" y="1125" type="curve" smooth="yes"/>
      <point x="406" y="1231"/>
      <point x="518" y="1310"/>
      <point x="690" y="1310" type="curve" smooth="yes"/>
      <point x="870" y="1310"/>
      <point x="1005" y="1235"/>
      <point x="1005" y="1024" type="curve" smooth="yes"/>
      <point x="1005" y="720"/>
      <point x="371" y="467"/>
      <point x="218" y="425" type="curve"/>
      <point x="218" y="207"/>
      <point x="432" y="0"/>
      <point x="688" y="0" type="curve" smooth="yes"/>
      <point x="921" y="0"/>
      <point x="1035" y="60"/>
      <point x="1122" y="154" type="curve" smooth="yes"/>
      <point x="1186" y="222"/>
      <point x="1193" y="322"/>
      <point x="1193" y="375" type="curve" smooth="yes"/>
      <point x="1193" y="454"/>
      <point x="1129" y="558"/>
      <point x="1035" y="601" type="curve"/>
      <point x="1058" y="548"/>
      <point x="1065" y="491"/>
      <point x="1065" y="412" type="curve" smooth="yes"/>
      <point x="1065" y="222"/>
      <point x="868" y="130"/>
      <point x="706" y="130" type="curve" smooth="yes"/>
      <point x="546" y="130"/>
      <point x="457" y="232"/>
      <point x="426" y="322" type="curve"/>
      <point x="632" y="394"/>
      <point x="1193" y="676"/>
    </contour>
  </outline>
</glyph>
<glyph name="uni178A17B6" format="2">
  <advance width="2204"/>
  <anchor x="1231" y="0" name="L1"/>
  <anchor x="1959" y="0" name="L2"/>
  <anchor x="1231" y="1743" name="U1"/>
  <anchor x="1959" y="1440" name="U2"/>
  <anchor x="763" y="0" name="lm"/>
  <anchor x="763" y="1743" name="um"/>
  <anchor x="1572" y="1440" name="um2"/>
  <outline>
    <contour>
      <point x="1771" y="980" type="curve"/>
      <point x="1771" y="0" type="line"/>
      <point x="1959" y="0" type="line"/>
      <point x="1959" y="1043" type="line" smooth="yes"/>
      <point x="1959" y="1104"/>
      <point x="1938" y="1133"/>
      <point x="1887" y="1192" type="curve" smooth="yes"/>
      <point x="1845" y="1240"/>
      <point x="1643" y="1440"/>
      <point x="1581" y="1440" type="curve" smooth="yes"/>
      <point x="1408" y="1440"/>
      <point x="1138" y="1085"/>
      <point x="1046" y="930" type="curve" smooth="yes"/>
      <point x="1006" y="863"/>
      <point x="960" y="748"/>
      <point x="949" y="701" type="curve"/>
      <point x="949" y="699" type="line"/>
      <point x="949" y="695"/>
      <point x="951" y="691"/>
      <point x="956" y="689" type="curve"/>
      <point x="1001" y="677"/>
      <point x="1043" y="643"/>
      <point x="1043" y="599" type="curve" smooth="yes"/>
      <point x="1043" y="215" type="line" smooth="yes"/>
      <point x="1043" y="172"/>
      <point x="1038" y="150"/>
      <point x="1014" y="150" type="curve" smooth="yes"/>
      <point x="1003" y="150"/>
      <point x="944" y="191"/>
      <point x="873" y="247" type="curve" smooth="yes"/>
      <point x="837" y="275"/>
      <point x="799" y="300"/>
      <point x="763" y="300" type="curve" smooth="yes"/>
      <point x="727" y="300"/>
      <point x="689" y="275"/>
      <point x="653" y="247" type="curve" smooth="yes"/>
      <point x="582" y="191"/>
      <point x="523" y="150"/>
      <point x="512" y="150" type="curve" smooth="yes"/>
      <point x="488" y="150"/>
      <point x="483" y="172"/>
      <point x="483" y="215" type="curve" smooth="yes"/>
      <point x="483" y="926" type="line"/>
      <point x="295" y="926" type="line"/>
      <point x="295" y="68" type="line" smooth="yes"/>
      <point x="295" y="33"/>
      <point x="338" y="0"/>
      <point x="382" y="0" type="curve" smooth="yes"/>
      <point x="463" y="0" type="line" smooth="yes"/>
      <point x="516" y="0"/>
      <point x="581" y="46"/>
      <point x="613" y="72" type="curve" smooth="yes"/>
      <point x="683" y="128"/>
      <point x="737" y="168"/>
      <point x="763" y="168" type="curve" smooth="yes"/>
      <point x="789" y="168"/>
      <point x="843" y="128"/>
      <point x="913" y="72" type="curve" smooth="yes"/>
      <point x="945" y="46"/>
      <point x="1010" y="0"/>
      <point x="1063" y="0" type="curve" smooth="yes"/>
      <point x="1144" y="0" type="line" smooth="yes"/>
      <point x="1186" y="0"/>
      <point x="1231" y="33"/>
      <point x="1231" y="68" type="curve" smooth="yes"/>
      <point x="1231" y="610" type="line" smooth="yes"/>
      <point x="1231" y="675"/>
      <point x="1167" y="724"/>
      <point x="1077" y="764" type="curve" smooth="yes"/>
      <point x="1075" y="765"/>
      <point x="1074" y="766"/>
      <point x="1074" y="768" type="curve"/>
      <point x="1074" y="770" type="line"/>
      <point x="1081" y="794"/>
      <point x="1099" y="835"/>
      <point x="1124" y="878" type="curve" smooth="yes"/>
      <point x="1210" y="1026"/>
      <point x="1396" y="1236"/>
      <point x="1525" y="1236" type="curve" smooth="yes"/>
      <point x="1574" y="1236"/>
      <point x="1697" y="1102"/>
      <point x="1739" y="1054" type="curve" smooth="yes"/>
      <point x="1752" y="1039"/>
      <point x="1771" y="1005"/>
    </contour>
    <contour>
      <point x="295" y="1231" type="curve" smooth="yes"/>
      <point x="295" y="1061"/>
      <point x="486" y="965"/>
      <point x="689" y="965" type="curve" smooth="yes"/>
      <point x="951" y="965"/>
      <point x="1181" y="1118"/>
      <point x="1181" y="1374" type="curve" smooth="yes"/>
      <point x="1181" y="1468"/>
      <point x="1170" y="1523"/>
      <point x="1112" y="1603" type="curve" smooth="yes"/>
      <point x="1049" y="1689"/>
      <point x="974" y="1743"/>
      <point x="878" y="1743" type="curve" smooth="yes"/>
      <point x="791" y="1743"/>
      <point x="761" y="1704"/>
      <point x="761" y="1658" type="curve" smooth="yes"/>
      <point x="761" y="1602"/>
      <point x="839" y="1557"/>
      <point x="903" y="1531" type="curve" smooth="yes"/>
      <point x="978" y="1500"/>
      <point x="1031" y="1449"/>
      <point x="1031" y="1374" type="curve" smooth="yes"/>
      <point x="1031" y="1193"/>
      <point x="857" y="1081"/>
      <point x="708" y="1081" type="curve" smooth="yes"/>
      <point x="572" y="1081"/>
      <point x="445" y="1148"/>
      <point x="445" y="1208" type="curve" smooth="yes"/>
      <point x="445" y="1246"/>
      <point x="449" y="1277"/>
      <point x="460" y="1297" type="curve"/>
      <point x="483" y="1274"/>
      <point x="517" y="1261"/>
      <point x="561" y="1261" type="curve" smooth="yes"/>
      <point x="629" y="1261"/>
      <point x="682" y="1301"/>
      <point x="682" y="1356" type="curve" smooth="yes"/>
      <point x="682" y="1435"/>
      <point x="596" y="1487"/>
      <point x="517" y="1487" type="curve" smooth="yes"/>
      <point x="475" y="1487"/>
      <point x="434" y="1476"/>
      <point x="407" y="1459" type="curve"/>
      <point x="321" y="1398"/>
      <point x="295" y="1314"/>
    </contour>
  </outline>
</glyph>
<glyph name="uni178C17B6" format="2">
  <advance width="2086"/>
  <anchor x="1162" y="0" name="L1"/>
  <anchor x="1841" y="0" name="L2"/>
  <anchor x="1162" y="1440" name="U1"/>
  <anchor x="1841" y="1440" name="U2"/>
  <anchor x="580" y="0" name="lm"/>
  <anchor x="686" y="1440" name="um"/>
  <anchor x="1428" y="1440" name="um2"/>
  <outline>
    <contour>
      <point x="218" y="1118" type="curve" smooth="yes"/>
      <point x="218" y="990"/>
      <point x="247" y="909"/>
      <point x="326" y="848" type="curve"/>
      <point x="364" y="823"/>
      <point x="401" y="812"/>
      <point x="457" y="812" type="curve" smooth="yes"/>
      <point x="540" y="812"/>
      <point x="623" y="856"/>
      <point x="623" y="944" type="curve" smooth="yes"/>
      <point x="623" y="999"/>
      <point x="569" y="1038"/>
      <point x="503" y="1038" type="curve" smooth="yes"/>
      <point x="461" y="1038"/>
      <point x="428" y="1027"/>
      <point x="404" y="1002" type="curve"/>
      <point x="397" y="1023"/>
      <point x="393" y="1083"/>
      <point x="393" y="1112" type="curve" smooth="yes"/>
      <point x="393" y="1177"/>
      <point x="408" y="1290"/>
      <point x="457" y="1290" type="curve" smooth="yes"/>
      <point x="472" y="1290"/>
      <point x="507" y="1264"/>
      <point x="540" y="1231" type="curve" smooth="yes"/>
      <point x="586" y="1185"/>
      <point x="637" y="1145"/>
      <point x="687" y="1145" type="curve" smooth="yes"/>
      <point x="736" y="1145"/>
      <point x="787" y="1185"/>
      <point x="833" y="1231" type="curve" smooth="yes"/>
      <point x="866" y="1264"/>
      <point x="901" y="1290"/>
      <point x="915" y="1290" type="curve" smooth="yes"/>
      <point x="955" y="1290"/>
      <point x="988" y="1208"/>
      <point x="988" y="1078" type="curve" smooth="yes"/>
      <point x="988" y="705"/>
      <point x="371" y="447"/>
      <point x="218" y="405" type="curve"/>
      <point x="218" y="286"/>
      <point x="353" y="0"/>
      <point x="578" y="0" type="curve" smooth="yes"/>
      <point x="777" y="0"/>
      <point x="905" y="115"/>
      <point x="975" y="190" type="curve"/>
      <point x="975" y="79" type="line" smooth="yes"/>
      <point x="975" y="53"/>
      <point x="944" y="0"/>
      <point x="918" y="0" type="curve"/>
      <point x="1106" y="0" type="line" smooth="yes"/>
      <point x="1132" y="0"/>
      <point x="1163" y="53"/>
      <point x="1163" y="79" type="curve" smooth="yes"/>
      <point x="1163" y="584" type="line"/>
      <point x="975" y="584" type="line"/>
      <point x="975" y="409" type="line" smooth="yes"/>
      <point x="975" y="379"/>
      <point x="770" y="130"/>
      <point x="585" y="130" type="curve" smooth="yes"/>
      <point x="479" y="130"/>
      <point x="408" y="269"/>
      <point x="408" y="322" type="curve"/>
      <point x="615" y="394"/>
      <point x="1163" y="669"/>
      <point x="1163" y="1092" type="curve" smooth="yes"/>
      <point x="1163" y="1336"/>
      <point x="1077" y="1440"/>
      <point x="934" y="1440" type="curve" smooth="yes"/>
      <point x="862" y="1440"/>
      <point x="802" y="1393"/>
      <point x="760" y="1351" type="curve" smooth="yes"/>
      <point x="727" y="1317"/>
      <point x="701" y="1295"/>
      <point x="687" y="1295" type="curve" smooth="yes"/>
      <point x="672" y="1295"/>
      <point x="644" y="1317"/>
      <point x="612" y="1350" type="curve" smooth="yes"/>
      <point x="569" y="1393"/>
      <point x="510" y="1440"/>
      <point x="439" y="1440" type="curve" smooth="yes"/>
      <point x="307" y="1440"/>
      <point x="218" y="1279"/>
    </contour>
    <contour>
      <point x="1332" y="1236" type="curve" smooth="yes"/>
      <point x="1401" y="1236"/>
      <point x="1543" y="1131"/>
      <point x="1614" y="1075" type="curve" smooth="yes"/>
      <point x="1631" y="1062"/>
      <point x="1653" y="1045"/>
      <point x="1653" y="1020" type="curve" smooth="yes"/>
      <point x="1653" y="0" type="line"/>
      <point x="1841" y="0" type="line"/>
      <point x="1841" y="1083" type="line" smooth="yes"/>
      <point x="1841" y="1144"/>
      <point x="1805" y="1184"/>
      <point x="1744" y="1232" type="curve" smooth="yes"/>
      <point x="1686" y="1278"/>
      <point x="1460" y="1440"/>
      <point x="1388" y="1440" type="curve" smooth="yes"/>
      <point x="1318" y="1440"/>
      <point x="1233" y="1372"/>
      <point x="1067" y="1199" type="curve" smooth="yes"/>
      <point x="960" y="1087"/>
      <point x="1046" y="1036"/>
      <point x="1098" y="1088" type="curve" smooth="yes"/>
      <point x="1188" y="1178"/>
      <point x="1283" y="1236"/>
    </contour>
  </outline>
</glyph>
<glyph name="uni178E17C5.right" format="2">
  <advance width="3256"/>
  <anchor x="2283" y="0" name="L1"/>
  <anchor x="3011" y="0" name="L2"/>
  <anchor x="2283" y="1440" name="U1"/>
  <anchor x="3011" y="1922" name="U2"/>
  <anchor x="1289" y="0" name="lm"/>
  <anchor x="1889" y="1440" name="um"/>
  <anchor x="2553" y="1922" name="um2"/>
  <outline>
    <contour>
      <point x="588" y="270" type="curve" smooth="yes"/>
      <point x="588" y="199"/>
      <point x="534" y="159"/>
      <point x="483" y="137" type="curve"/>
      <point x="483" y="408" type="line"/>
      <point x="549" y="389"/>
      <point x="588" y="323"/>
    </contour>
    <contour>
      <point x="295" y="1253" type="curve"/>
      <point x="295" y="78" type="line"/>
      <point x="320" y="15"/>
      <point x="401" y="0"/>
      <point x="466" y="0" type="curve"/>
      <point x="632" y="31"/>
      <point x="710" y="171"/>
      <point x="710" y="270" type="curve" smooth="yes"/>
      <point x="710" y="384"/>
      <point x="613" y="482"/>
      <point x="483" y="495" type="curve"/>
      <point x="483" y="1246" type="line" smooth="yes"/>
      <point x="483" y="1301"/>
      <point x="603" y="1328"/>
      <point x="689" y="1328" type="curve" smooth="yes"/>
      <point x="775" y="1328"/>
      <point x="895" y="1301"/>
      <point x="895" y="1246" type="curve" smooth="yes"/>
      <point x="895" y="68" type="line" smooth="yes"/>
      <point x="895" y="33"/>
      <point x="936" y="0"/>
      <point x="982" y="0" type="curve" smooth="yes"/>
      <point x="1061" y="0" type="line" smooth="yes"/>
      <point x="1135" y="0"/>
      <point x="1205" y="94"/>
      <point x="1251" y="154" type="curve" smooth="yes"/>
      <point x="1268" y="177"/>
      <point x="1285" y="203"/>
      <point x="1289" y="211" type="curve"/>
      <point x="1293" y="203"/>
      <point x="1309" y="176"/>
      <point x="1327" y="154" type="curve"/>
      <point x="1373" y="94"/>
      <point x="1443" y="0"/>
      <point x="1517" y="0" type="curve" smooth="yes"/>
      <point x="1596" y="0" type="line" smooth="yes"/>
      <point x="1641" y="0"/>
      <point x="1683" y="33"/>
      <point x="1683" y="68" type="curve" smooth="yes"/>
      <point x="1683" y="1246" type="line" smooth="yes"/>
      <point x="1683" y="1301"/>
      <point x="1803" y="1328"/>
      <point x="1889" y="1328" type="curve" smooth="yes"/>
      <point x="1975" y="1328"/>
      <point x="2095" y="1301"/>
      <point x="2095" y="1246" type="curve" smooth="yes"/>
      <point x="2095" y="0" type="line"/>
      <point x="2283" y="0" type="line"/>
      <point x="2283" y="1253" type="line" smooth="yes"/>
      <point x="2283" y="1353"/>
      <point x="2085" y="1440"/>
      <point x="1889" y="1440" type="curve" smooth="yes"/>
      <point x="1693" y="1440"/>
      <point x="1495" y="1353"/>
      <point x="1495" y="1253" type="curve" smooth="yes"/>
      <point x="1495" y="215" type="line" smooth="yes"/>
      <point x="1495" y="172"/>
      <point x="1488" y="150"/>
      <point x="1473" y="150" type="curve" smooth="yes"/>
      <point x="1459" y="150"/>
      <point x="1415" y="207"/>
      <point x="1383" y="262" type="curve" smooth="yes"/>
      <point x="1353" y="314"/>
      <point x="1319" y="361"/>
      <point x="1289" y="361" type="curve" smooth="yes"/>
      <point x="1259" y="361"/>
      <point x="1224" y="314"/>
      <point x="1194" y="262" type="curve" smooth="yes"/>
      <point x="1162" y="207"/>
      <point x="1119" y="150"/>
      <point x="1105" y="150" type="curve" smooth="yes"/>
      <point x="1090" y="150"/>
      <point x="1083" y="172"/>
      <point x="1083" y="215" type="curve" smooth="yes"/>
      <point x="1083" y="1253" type="line" smooth="yes"/>
      <point x="1083" y="1353"/>
      <point x="885" y="1440"/>
      <point x="689" y="1440" type="curve" smooth="yes"/>
      <point x="493" y="1440"/>
      <point x="295" y="1353"/>
    </contour>
    <contour>
      <point x="2823" y="1792" type="curve"/>
      <point x="2823" y="1410" type="line" smooth="yes"/>
      <point x="2823" y="1352"/>
      <point x="2799" y="1307"/>
      <point x="2766" y="1261" type="curve"/>
      <point x="2907" y="1170" type="line"/>
      <point x="2970" y="1257"/>
      <point x="3011" y="1323"/>
      <point x="3011" y="1410" type="curve" smooth="yes"/>
      <point x="3011" y="1788" type="line" smooth="yes"/>
      <point x="3011" y="1858"/>
      <point x="2923" y="1922"/>
      <point x="2840" y="1922" type="curve" smooth="yes"/>
      <point x="2769" y="1922"/>
      <point x="2739" y="1908"/>
      <point x="2712" y="1893" type="curve"/>
      <point x="2787" y="1893"/>
      <point x="2823" y="1825"/>
    </contour>
    <contour>
      <point x="2502" y="1236" type="curve" smooth="yes"/>
      <point x="2571" y="1236"/>
      <point x="2713" y="1131"/>
      <point x="2784" y="1075" type="curve" smooth="yes"/>
      <point x="2801" y="1062"/>
      <point x="2823" y="1045"/>
      <point x="2823" y="1020" type="curve" smooth="yes"/>
      <point x="2823" y="0" type="line"/>
      <point x="3011" y="0" type="line"/>
      <point x="3011" y="1083" type="line" smooth="yes"/>
      <point x="3011" y="1144"/>
      <point x="2975" y="1184"/>
      <point x="2914" y="1232" type="curve" smooth="yes"/>
      <point x="2856" y="1278"/>
      <point x="2630" y="1440"/>
      <point x="2558" y="1440" type="curve" smooth="yes"/>
      <point x="2488" y="1440"/>
      <point x="2403" y="1372"/>
      <point x="2237" y="1199" type="curve" smooth="yes"/>
      <point x="2130" y="1087"/>
      <point x="2216" y="1036"/>
      <point x="2268" y="1088" type="curve" smooth="yes"/>
      <point x="2358" y="1178"/>
      <point x="2453" y="1236"/>
    </contour>
  </outline>
</glyph>
<glyph name="uni179817B6" format="2">
  <advance width="2204"/>
  <anchor x="1231" y="0" name="L1"/>
  <anchor x="1959" y="0" name="L2"/>
  <anchor x="1231" y="1440" name="U1"/>
  <anchor x="1959" y="1440" name="U2"/>
  <anchor x="763" y="0" name="lm"/>
  <anchor x="763" y="1440" name="um"/>
  <anchor x="1501" y="1440" name="um2"/>
  <outline>
    <contour>
      <point x="1043" y="784" type="line"/>
      <point x="1043" y="600" type="line"/>
      <point x="483" y="600" type="line"/>
      <point x="483" y="950" type="line" smooth="yes"/>
      <point x="483" y="1015"/>
      <point x="344" y="1114"/>
      <point x="224" y="1154" type="curve" smooth="yes"/>
      <point x="222" y="1155"/>
      <point x="221" y="1156"/>
      <point x="221" y="1158" type="curve"/>
      <point x="221" y="1160" type="line"/>
      <point x="226" y="1183"/>
      <point x="241" y="1215"/>
      <point x="259" y="1227" type="curve" smooth="yes"/>
      <point x="267" y="1233"/>
      <point x="277" y="1236"/>
      <point x="287" y="1236" type="curve" smooth="yes"/>
      <point x="356" y="1236"/>
      <point x="389" y="1165"/>
      <point x="474" y="1165" type="curve" smooth="yes"/>
      <point x="565" y="1165"/>
      <point x="584" y="1260"/>
      <point x="615" y="1346" type="curve"/>
      <point x="592" y="1336"/>
      <point x="568" y="1334"/>
      <point x="545" y="1334" type="curve" smooth="yes"/>
      <point x="490" y="1334"/>
      <point x="405" y="1440"/>
      <point x="333" y="1440" type="curve" smooth="yes"/>
      <point x="249" y="1440"/>
      <point x="146" y="1185"/>
      <point x="121" y="1081" type="curve"/>
      <point x="121" y="1079" type="line"/>
      <point x="121" y="1075"/>
      <point x="123" y="1070"/>
      <point x="128" y="1069" type="curve" smooth="yes"/>
      <point x="233" y="1057"/>
      <point x="295" y="983"/>
      <point x="295" y="939" type="curve" smooth="yes"/>
      <point x="295" y="187" type="line" smooth="yes"/>
      <point x="295" y="87"/>
      <point x="567" y="0"/>
      <point x="763" y="0" type="curve" smooth="yes"/>
      <point x="959" y="0"/>
      <point x="1231" y="87"/>
      <point x="1231" y="187" type="curve" smooth="yes"/>
      <point x="1231" y="773" type="line"/>
    </contour>
    <contour>
      <point x="1231" y="773" type="line"/>
      <point x="1231" y="950" type="line" smooth="yes"/>
      <point x="1231" y="1015"/>
      <point x="1092" y="1114"/>
      <point x="972" y="1154" type="curve" smooth="yes"/>
      <point x="970" y="1155"/>
      <point x="968" y="1156"/>
      <point x="968" y="1158" type="curve"/>
      <point x="968" y="1159"/>
      <point x="968" y="1159"/>
      <point x="969" y="1160" type="curve"/>
      <point x="1028" y="1209"/>
      <point x="1279" y="1236"/>
      <point x="1375" y="1236" type="curve" smooth="yes"/>
      <point x="1444" y="1236"/>
      <point x="1661" y="1121"/>
      <point x="1732" y="1075" type="curve" smooth="yes"/>
      <point x="1749" y="1064"/>
      <point x="1771" y="1045"/>
      <point x="1771" y="1020" type="curve" smooth="yes"/>
      <point x="1771" y="0" type="line"/>
      <point x="1959" y="0" type="line"/>
      <point x="1959" y="1083" type="line" smooth="yes"/>
      <point x="1959" y="1144"/>
      <point x="1927" y="1189"/>
      <point x="1862" y="1232" type="curve" smooth="yes"/>
      <point x="1804" y="1270"/>
      <point x="1503" y="1440"/>
      <point x="1431" y="1440" type="curve" smooth="yes"/>
      <point x="1322" y="1440"/>
      <point x="1099" y="1397"/>
      <point x="1007" y="1302" type="curve" smooth="yes"/>
      <point x="938" y="1231"/>
      <point x="889" y="1165"/>
      <point x="869" y="1081" type="curve"/>
      <point x="869" y="1079" type="line"/>
      <point x="869" y="1075"/>
      <point x="871" y="1070"/>
      <point x="876" y="1069" type="curve" smooth="yes"/>
      <point x="981" y="1057"/>
      <point x="1043" y="983"/>
      <point x="1043" y="939" type="curve" smooth="yes"/>
      <point x="1043" y="784" type="line"/>
    </contour>
    <contour>
      <point x="763" y="112" type="curve" smooth="yes"/>
      <point x="685" y="112"/>
      <point x="483" y="143"/>
      <point x="483" y="207" type="curve" smooth="yes"/>
      <point x="483" y="470" type="line"/>
      <point x="1043" y="470" type="line"/>
      <point x="1043" y="207" type="line" smooth="yes"/>
      <point x="1043" y="143"/>
      <point x="841" y="112"/>
    </contour>
  </outline>
</glyph>
<glyph name="uni17A017B6" format="2">
  <advance width="2656"/>
  <anchor x="1683" y="0" name="L1"/>
  <anchor x="2411" y="0" name="L2"/>
  <anchor x="1683" y="1440" name="U1"/>
  <anchor x="2411" y="1440" name="U2"/>
  <anchor x="989" y="0" name="lm"/>
  <anchor x="1289" y="1440" name="um"/>
  <anchor x="1998" y="1440" name="um2"/>
  <outline>
    <contour>
      <point x="295" y="939" type="curve"/>
      <point x="295" y="187" type="line" smooth="yes"/>
      <point x="295" y="87"/>
      <point x="493" y="0"/>
      <point x="689" y="0" type="curve" smooth="yes"/>
      <point x="885" y="0"/>
      <point x="1083" y="87"/>
      <point x="1083" y="187" type="curve" smooth="yes"/>
      <point x="1083" y="1246" type="line" smooth="yes"/>
      <point x="1083" y="1301"/>
      <point x="1203" y="1328"/>
      <point x="1289" y="1328" type="curve" smooth="yes"/>
      <point x="1375" y="1328"/>
      <point x="1495" y="1301"/>
      <point x="1495" y="1246" type="curve" smooth="yes"/>
      <point x="1495" y="0" type="line"/>
      <point x="1683" y="0" type="line"/>
      <point x="1683" y="1253" type="line" smooth="yes"/>
      <point x="1683" y="1353"/>
      <point x="1485" y="1440"/>
      <point x="1289" y="1440" type="curve" smooth="yes"/>
      <point x="1093" y="1440"/>
      <point x="895" y="1353"/>
      <point x="895" y="1253" type="curve" smooth="yes"/>
      <point x="895" y="194" type="line" smooth="yes"/>
      <point x="895" y="139"/>
      <point x="775" y="112"/>
      <point x="689" y="112" type="curve" smooth="yes"/>
      <point x="603" y="112"/>
      <point x="483" y="139"/>
      <point x="483" y="194" type="curve" smooth="yes"/>
      <point x="483" y="950" type="line" smooth="yes"/>
      <point x="483" y="1015"/>
      <point x="344" y="1114"/>
      <point x="224" y="1154" type="curve" smooth="yes"/>
      <point x="222" y="1155"/>
      <point x="221" y="1156"/>
      <point x="221" y="1158" type="curve"/>
      <point x="221" y="1160" type="line"/>
      <point x="226" y="1183"/>
      <point x="241" y="1215"/>
      <point x="259" y="1227" type="curve" smooth="yes"/>
      <point x="267" y="1233"/>
      <point x="277" y="1236"/>
      <point x="287" y="1236" type="curve" smooth="yes"/>
      <point x="356" y="1236"/>
      <point x="389" y="1165"/>
      <point x="474" y="1165" type="curve" smooth="yes"/>
      <point x="565" y="1165"/>
      <point x="584" y="1260"/>
      <point x="615" y="1346" type="curve"/>
      <point x="592" y="1336"/>
      <point x="568" y="1334"/>
      <point x="545" y="1334" type="curve" smooth="yes"/>
      <point x="490" y="1334"/>
      <point x="405" y="1440"/>
      <point x="333" y="1440" type="curve" smooth="yes"/>
      <point x="249" y="1440"/>
      <point x="146" y="1185"/>
      <point x="121" y="1081" type="curve"/>
      <point x="121" y="1079" type="line"/>
      <point x="121" y="1075"/>
      <point x="123" y="1070"/>
      <point x="128" y="1069" type="curve" smooth="yes"/>
      <point x="233" y="1057"/>
      <point x="295" y="983"/>
    </contour>
    <contour>
      <point x="1902" y="1236" type="curve" smooth="yes"/>
      <point x="1971" y="1236"/>
      <point x="2113" y="1131"/>
      <point x="2184" y="1075" type="curve" smooth="yes"/>
      <point x="2201" y="1062"/>
      <point x="2223" y="1045"/>
      <point x="2223" y="1020" type="curve" smooth="yes"/>
      <point x="2223" y="0" type="line"/>
      <point x="2411" y="0" type="line"/>
      <point x="2411" y="1083" type="line" smooth="yes"/>
      <point x="2411" y="1144"/>
      <point x="2375" y="1184"/>
      <point x="2314" y="1232" type="curve" smooth="yes"/>
      <point x="2256" y="1278"/>
      <point x="2030" y="1440"/>
      <point x="1958" y="1440" type="curve" smooth="yes"/>
      <point x="1888" y="1440"/>
      <point x="1803" y="1372"/>
      <point x="1637" y="1199" type="curve" smooth="yes"/>
      <point x="1530" y="1087"/>
      <point x="1616" y="1036"/>
      <point x="1668" y="1088" type="curve" smooth="yes"/>
      <point x="1758" y="1178"/>
      <point x="1853" y="1236"/>
    </contour>
  </outline>
</glyph>
<glyph name="uni17D21783.low" format="2">
  <advance width="728"/>
  <anchor x="483" y="-1225" name="L"/>
  <anchor x="483" y="1440" name="U"/>
  <anchor x="389" y="1440" name="um"/>
  <outline>
    <contour>
      <point x="-49" y="-1037" type="curve" smooth="yes"/>
      <point x="-49" y="-1000"/>
      <point x="-159" y="-976"/>
      <point x="-247" y="-954" type="curve"/>
      <point x="-248" y="-954"/>
      <point x="-249" y="-953"/>
      <point x="-249" y="-951" type="curve"/>
      <point x="-249" y="-949" type="line"/>
      <point x="-245" y="-937"/>
      <point x="-240" y="-927"/>
      <point x="-226" y="-919" type="curve" smooth="yes"/>
      <point x="-220" y="-916"/>
      <point x="-212" y="-915"/>
      <point x="-206" y="-915" type="curve" smooth="yes"/>
      <point x="-155" y="-915"/>
      <point x="-131" y="-956"/>
      <point x="-69" y="-956" type="curve" smooth="yes"/>
      <point x="-2" y="-956"/>
      <point x="11" y="-893"/>
      <point x="35" y="-844" type="curve"/>
      <point x="18" y="-849"/>
      <point x="0" y="-849"/>
      <point x="-16" y="-849" type="curve" smooth="yes"/>
      <point x="-57" y="-849"/>
      <point x="-119" y="-790"/>
      <point x="-172" y="-790" type="curve" smooth="yes"/>
      <point x="-233" y="-790"/>
      <point x="-309" y="-936"/>
      <point x="-327" y="-995" type="curve"/>
      <point x="-327" y="-996" type="line"/>
      <point x="-327" y="-998"/>
      <point x="-325" y="-1001"/>
      <point x="-321" y="-1001" type="curve"/>
      <point x="-245" y="-1008"/>
      <point x="-222" y="-1027"/>
      <point x="-222" y="-1051" type="curve" smooth="yes"/>
      <point x="-222" y="-1087"/>
      <point x="-316" y="-1113"/>
      <point x="-389" y="-1113" type="curve" smooth="yes"/>
      <point x="-476" y="-1113"/>
      <point x="-561" y="-1085"/>
      <point x="-561" y="-1030" type="curve" smooth="yes"/>
      <point x="-561" y="-869" type="line"/>
      <point x="-573" y="-808"/>
      <point x="-646" y="-790"/>
      <point x="-714" y="-790" type="curve"/>
      <point x="-796" y="-808"/>
      <point x="-860" y="-830"/>
      <point x="-860" y="-906" type="curve" smooth="yes"/>
      <point x="-860" y="-947"/>
      <point x="-821" y="-1012"/>
      <point x="-729" y="-1015" type="curve"/>
      <point x="-729" y="-1038" type="line" smooth="yes"/>
      <point x="-729" y="-1138"/>
      <point x="-585" y="-1225"/>
      <point x="-389" y="-1225" type="curve" smooth="yes"/>
      <point x="-280" y="-1225"/>
      <point x="-193" y="-1199"/>
      <point x="-133" y="-1153" type="curve"/>
      <point x="-50" y="-1199"/>
      <point x="10" y="-1225"/>
      <point x="123" y="-1225" type="curve" smooth="yes"/>
      <point x="319" y="-1225"/>
      <point x="483" y="-1138"/>
      <point x="483" y="-1038" type="curve" smooth="yes"/>
      <point x="483" y="950" type="line" smooth="yes"/>
      <point x="483" y="1015"/>
      <point x="344" y="1114"/>
      <point x="224" y="1154" type="curve" smooth="yes"/>
      <point x="222" y="1155"/>
      <point x="221" y="1156"/>
      <point x="221" y="1158" type="curve"/>
      <point x="221" y="1160" type="line"/>
      <point x="226" y="1183"/>
      <point x="241" y="1215"/>
      <point x="259" y="1227" type="curve" smooth="yes"/>
      <point x="267" y="1233"/>
      <point x="277" y="1236"/>
      <point x="287" y="1236" type="curve" smooth="yes"/>
      <point x="356" y="1236"/>
      <point x="389" y="1165"/>
      <point x="474" y="1165" type="curve" smooth="yes"/>
      <point x="565" y="1165"/>
      <point x="584" y="1260"/>
      <point x="615" y="1346" type="curve"/>
      <point x="592" y="1336"/>
      <point x="568" y="1334"/>
      <point x="545" y="1334" type="curve" smooth="yes"/>
      <point x="490" y="1334"/>
      <point x="405" y="1440"/>
      <point x="333" y="1440" type="curve" smooth="yes"/>
      <point x="249" y="1440"/>
      <point x="146" y="1185"/>
      <point x="121" y="1081" type="curve"/>
      <point x="121" y="1079" type="line"/>
      <point x="121" y="1075"/>
      <point x="123" y="1070"/>
      <point x="128" y="1069" type="curve" smooth="yes"/>
      <point x="233" y="1057"/>
      <point x="295" y="983"/>
      <point x="295" y="939" type="curve" smooth="yes"/>
      <point x="295" y="-1030" type="line" smooth="yes"/>
      <point x="295" y="-1078"/>
      <point x="224" y="-1113"/>
      <point x="123" y="-1113" type="curve" smooth="yes"/>
      <point x="21" y="-1113"/>
      <point x="-49" y="-1072"/>
    </contour>
    <contour>
      <point x="-765" y="-908" type="curve" smooth="yes"/>
      <point x="-765" y="-891"/>
      <point x="-751" y="-883"/>
      <point x="-729" y="-876" type="curve"/>
      <point x="-729" y="-936" type="line"/>
      <point x="-755" y="-933"/>
      <point x="-765" y="-921"/>
    </contour>
  </outline>
</glyph>
<glyph name="uni17D2179917B6.low" format="2">
  <advance width="1456"/>
  <anchor x="483" y="-1225" name="L1"/>
  <anchor x="1211" y="0" name="L2"/>
  <anchor x="1211" y="1440" name="U2"/>
  <anchor x="753" y="1440" name="um"/>
  <outline>
    <contour>
      <point x="295" y="890" type="line"/>
      <point x="295" y="-1023" type="line" smooth="yes"/>
      <point x="295" y="-1079"/>
      <point x="154" y="-1113"/>
      <point x="34" y="-1113" type="curve" smooth="yes"/>
      <point x="-86" y="-1113"/>
      <point x="-245" y="-1079"/>
      <point x="-245" y="-1023" type="curve" smooth="yes"/>
      <point x="-245" y="-976" type="line"/>
      <point x="-188" y="-970"/>
      <point x="-153" y="-929"/>
      <point x="-153" y="-898" type="curve" smooth="yes"/>
      <point x="-153" y="-827"/>
      <point x="-189" y="-801"/>
      <point x="-261" y="-790" type="curve"/>
      <point x="-332" y="-790"/>
      <point x="-421" y="-808"/>
      <point x="-433" y="-869" type="curve"/>
      <point x="-433" y="-1038" type="line" smooth="yes"/>
      <point x="-433" y="-1140"/>
      <point x="-206" y="-1225"/>
      <point x="34" y="-1225" type="curve" smooth="yes"/>
      <point x="274" y="-1225"/>
      <point x="483" y="-1140"/>
      <point x="483" y="-1038" type="curve" smooth="yes"/>
      <point x="483" y="932" type="line"/>
    </contour>
    <contour>
      <point x="483" y="773" type="line"/>
      <point x="483" y="950" type="line" smooth="yes"/>
      <point x="483" y="1015"/>
      <point x="344" y="1114"/>
      <point x="224" y="1154" type="curve" smooth="yes"/>
      <point x="222" y="1155"/>
      <point x="220" y="1156"/>
      <point x="220" y="1158" type="curve"/>
      <point x="220" y="1159"/>
      <point x="220" y="1159"/>
      <point x="221" y="1160" type="curve"/>
      <point x="280" y="1209"/>
      <point x="501" y="1236"/>
      <point x="597" y="1236" type="curve" smooth="yes"/>
      <point x="666" y="1236"/>
      <point x="913" y="1121"/>
      <point x="984" y="1075" type="curve" smooth="yes"/>
      <point x="1001" y="1064"/>
      <point x="1023" y="1045"/>
      <point x="1023" y="1020" type="curve" smooth="yes"/>
      <point x="1023" y="0" type="line"/>
      <point x="1211" y="0" type="line"/>
      <point x="1211" y="1083" type="line" smooth="yes"/>
      <point x="1211" y="1144"/>
      <point x="1179" y="1189"/>
      <point x="1114" y="1232" type="curve" smooth="yes"/>
      <point x="1056" y="1270"/>
      <point x="725" y="1440"/>
      <point x="653" y="1440" type="curve" smooth="yes"/>
      <point x="544" y="1440"/>
      <point x="351" y="1397"/>
      <point x="259" y="1302" type="curve" smooth="yes"/>
      <point x="190" y="1231"/>
      <point x="141" y="1165"/>
      <point x="121" y="1081" type="curve"/>
      <point x="121" y="1079" type="line"/>
      <point x="121" y="1075"/>
      <point x="123" y="1070"/>
      <point x="128" y="1069" type="curve" smooth="yes"/>
      <point x="233" y="1057"/>
      <point x="295" y="983"/>
      <point x="295" y="939" type="curve" smooth="yes"/>
      <point x="295" y="784" type="line"/>
    </contour>
  </outline>
</glyph>
<glyph name="uni17D2179E.low" format="2">
  <advance width="728"/>
  <anchor x="483" y="-1225" name="L"/>
  <anchor x="483" y="1440" name="U"/>
  <anchor x="389" y="1440" name="um"/>
  <outline>
    <contour>
      <point x="295" y="892" type="line"/>
      <point x="295" y="340" type="line"/>
      <point x="246" y="370"/>
      <point x="206" y="399"/>
      <point x="176" y="399" type="curve" smooth="yes"/>
      <point x="136" y="399"/>
      <point x="110" y="373"/>
      <point x="110" y="337" type="curve" smooth="yes"/>
      <point x="110" y="272"/>
      <point x="196" y="214"/>
      <point x="295" y="176" type="curve"/>
      <point x="295" y="-1008" type="line" smooth="yes"/>
      <point x="295" y="-1051"/>
      <point x="291" y="-1075"/>
      <point x="273" y="-1075" type="curve" smooth="yes"/>
      <point x="252" y="-1075"/>
      <point x="182" y="-1023"/>
      <point x="123" y="-977" type="curve" smooth="yes"/>
      <point x="41" y="-913"/>
      <point x="1" y="-888"/>
      <point x="-25" y="-888" type="curve" smooth="yes"/>
      <point x="-51" y="-888"/>
      <point x="-91" y="-913"/>
      <point x="-173" y="-977" type="curve" smooth="yes"/>
      <point x="-232" y="-1023"/>
      <point x="-302" y="-1075"/>
      <point x="-323" y="-1075" type="curve" smooth="yes"/>
      <point x="-341" y="-1075"/>
      <point x="-345" y="-1051"/>
      <point x="-345" y="-1018" type="curve" smooth="yes"/>
      <point x="-345" y="-1014" type="line"/>
      <point x="-277" y="-1007"/>
      <point x="-233" y="-969"/>
      <point x="-233" y="-914" type="curve" smooth="yes"/>
      <point x="-233" y="-871"/>
      <point x="-274" y="-807"/>
      <point x="-361" y="-790" type="curve"/>
      <point x="-427" y="-790"/>
      <point x="-505" y="-804"/>
      <point x="-533" y="-869" type="curve"/>
      <point x="-533" y="-1156" type="line" smooth="yes"/>
      <point x="-533" y="-1191"/>
      <point x="-489" y="-1225"/>
      <point x="-445" y="-1225" type="curve" smooth="yes"/>
      <point x="-365" y="-1225" type="line" smooth="yes"/>
      <point x="-289" y="-1225"/>
      <point x="-191" y="-1159"/>
      <point x="-113" y="-1099" type="curve" smooth="yes"/>
      <point x="-83" y="-1076"/>
      <point x="-29" y="-1038"/>
      <point x="-25" y="-1038" type="curve" smooth="yes"/>
      <point x="-21" y="-1038"/>
      <point x="33" y="-1076"/>
      <point x="63" y="-1099" type="curve" smooth="yes"/>
      <point x="141" y="-1158"/>
      <point x="239" y="-1225"/>
      <point x="315" y="-1225" type="curve" smooth="yes"/>
      <point x="395" y="-1225" type="line" smooth="yes"/>
      <point x="439" y="-1225"/>
      <point x="483" y="-1191"/>
      <point x="483" y="-1156" type="curve" smooth="yes"/>
      <point x="483" y="132" type="line"/>
      <point x="492" y="131"/>
      <point x="500" y="131"/>
      <point x="508" y="131" type="curve" smooth="yes"/>
      <point x="589" y="131"/>
      <point x="666" y="187"/>
      <point x="694" y="224" type="curve"/>
      <point x="684" y="223"/>
      <point x="672" y="222"/>
      <point x="660" y="222" type="curve" smooth="yes"/>
      <point x="608" y="222"/>
      <point x="542" y="234"/>
      <point x="483" y="252" type="curve"/>
      <point x="483" y="922" type="line"/>
    </contour>
    <contour>
      <point x="483" y="688" type="line"/>
      <point x="483" y="950" type="line" smooth="yes"/>
      <point x="483" y="1015"/>
      <point x="344" y="1114"/>
      <point x="224" y="1154" type="curve" smooth="yes"/>
      <point x="222" y="1155"/>
      <point x="221" y="1156"/>
      <point x="221" y="1158" type="curve"/>
      <point x="221" y="1160" type="line"/>
      <point x="226" y="1183"/>
      <point x="241" y="1215"/>
      <point x="259" y="1227" type="curve" smooth="yes"/>
      <point x="267" y="1233"/>
      <point x="277" y="1236"/>
      <point x="287" y="1236" type="curve" smooth="yes"/>
      <point x="356" y="1236"/>
      <point x="389" y="1165"/>
      <point x="474" y="1165" type="curve" smooth="yes"/>
      <point x="565" y="1165"/>
      <point x="584" y="1260"/>
      <point x="615" y="1346" type="curve"/>
      <point x="592" y="1336"/>
      <point x="568" y="1334"/>
      <point x="545" y="1334" type="curve" smooth="yes"/>
      <point x="490" y="1334"/>
      <point x="405" y="1440"/>
      <point x="333" y="1440" type="curve" smooth="yes"/>
      <point x="249" y="1440"/>
      <point x="146" y="1185"/>
      <point x="121" y="1081" type="curve"/>
      <point x="121" y="1079" type="line"/>
      <point x="121" y="1075"/>
      <point x="123" y="1070"/>
      <point x="128" y="1069" type="curve" smooth="yes"/>
      <point x="233" y="1057"/>
      <point x="295" y="983"/>
      <point x="295" y="939" type="curve" smooth="yes"/>
      <point x="295" y="688" type="line"/>
    </contour>
  </outline>
</glyph>
<glyph name="uni17D2179F.low" format="2">
  <advance width="728"/>
  <anchor x="483" y="-1225" name="L"/>
  <anchor x="483" y="1440" name="U"/>
  <anchor x="389" y="1440" name="um"/>
  <outline>
    <contour>
      <point x="295" y="857" type="line"/>
      <point x="295" y="340" type="line"/>
      <point x="246" y="370"/>
      <point x="206" y="399"/>
      <point x="176" y="399" type="curve" smooth="yes"/>
      <point x="136" y="399"/>
      <point x="110" y="373"/>
      <point x="110" y="337" type="curve" smooth="yes"/>
      <point x="110" y="272"/>
      <point x="196" y="214"/>
      <point x="295" y="176" type="curve"/>
      <point x="295" y="-1023" type="line" smooth="yes"/>
      <point x="295" y="-1079"/>
      <point x="155" y="-1113"/>
      <point x="32" y="-1113" type="curve" smooth="yes"/>
      <point x="-92" y="-1113"/>
      <point x="-245" y="-1079"/>
      <point x="-245" y="-1023" type="curve" smooth="yes"/>
      <point x="-245" y="-869" type="line"/>
      <point x="-256" y="-808"/>
      <point x="-332" y="-790"/>
      <point x="-400" y="-790" type="curve"/>
      <point x="-483" y="-808"/>
      <point x="-566" y="-830"/>
      <point x="-566" y="-906" type="curve" smooth="yes"/>
      <point x="-566" y="-947"/>
      <point x="-526" y="-1012"/>
      <point x="-433" y="-1015" type="curve"/>
      <point x="-433" y="-1038" type="line" smooth="yes"/>
      <point x="-433" y="-1140"/>
      <point x="-207" y="-1225"/>
      <point x="34" y="-1225" type="curve" smooth="yes"/>
      <point x="276" y="-1225"/>
      <point x="483" y="-1140"/>
      <point x="483" y="-1038" type="curve" smooth="yes"/>
      <point x="483" y="132" type="line"/>
      <point x="492" y="131"/>
      <point x="500" y="131"/>
      <point x="508" y="131" type="curve" smooth="yes"/>
      <point x="589" y="131"/>
      <point x="666" y="187"/>
      <point x="694" y="224" type="curve"/>
      <point x="684" y="223"/>
      <point x="672" y="222"/>
      <point x="660" y="222" type="curve" smooth="yes"/>
      <point x="608" y="222"/>
      <point x="542" y="234"/>
      <point x="483" y="252" type="curve"/>
      <point x="483" y="877" type="line"/>
    </contour>
    <contour>
      <point x="-472" y="-909" type="curve" smooth="yes"/>
      <point x="-472" y="-891"/>
      <point x="-455" y="-883"/>
      <point x="-433" y="-877" type="curve"/>
      <point x="-433" y="-937" type="line"/>
      <point x="-460" y="-934"/>
      <point x="-472" y="-922"/>
    </contour>
    <contour>
      <point x="483" y="688" type="line"/>
      <point x="483" y="950" type="line" smooth="yes"/>
      <point x="483" y="1015"/>
      <point x="344" y="1114"/>
      <point x="224" y="1154" type="curve" smooth="yes"/>
      <point x="222" y="1155"/>
      <point x="221" y="1156"/>
      <point x="221" y="1158" type="curve"/>
      <point x="221" y="1160" type="line"/>
      <point x="226" y="1183"/>
      <point x="241" y="1215"/>
      <point x="259" y="1227" type="curve" smooth="yes"/>
      <point x="267" y="1233"/>
      <point x="277" y="1236"/>
      <point x="287" y="1236" type="curve" smooth="yes"/>
      <point x="356" y="1236"/>
      <point x="389" y="1165"/>
      <point x="474" y="1165" type="curve" smooth="yes"/>
      <point x="565" y="1165"/>
      <point x="584" y="1260"/>
      <point x="615" y="1346" type="curve"/>
      <point x="592" y="1336"/>
      <point x="568" y="1334"/>
      <point x="545" y="1334" type="curve" smooth="yes"/>
      <point x="490" y="1334"/>
      <point x="405" y="1440"/>
      <point x="333" y="1440" type="curve" smooth="yes"/>
      <point x="249" y="1440"/>
      <point x="146" y="1185"/>
      <point x="121" y="1081" type="curve"/>
      <point x="121" y="1079" type="line"/>
      <point x="121" y="1075"/>
      <point x="123" y="1070"/>
      <point x="128" y="1069" type="curve" smooth="yes"/>
      <point x="233" y="1057"/>
      <point x="295" y="983"/>
      <point x="295" y="939" type="curve" smooth="yes"/>
      <point x="295" y="688" type="line"/>
    </contour>
  </outline>
</glyph>
<glyph name="uni17D217AF" format="2">
  <anchor x="-245" y="-900" name="L"/>
  <anchor x="-245" y="0" name="_L"/>
  <anchor x="-546" y="0" name="_lm"/>
  <anchor x="-546" y="-900" name="lm"/>
  <outline>
    <contour>
      <point x="-805" y="-799" type="curve"/>
      <point x="-805" y="-511" type="line"/>
      <point x="-824" y="-482"/>
      <point x="-884" y="-475"/>
      <point x="-932" y="-475" type="curve"/>
      <point x="-1057" y="-488"/>
      <point x="-1115" y="-555"/>
      <point x="-1115" y="-602" type="curve" smooth="yes"/>
      <point x="-1115" y="-655"/>
      <point x="-1043" y="-702"/>
      <point x="-945" y="-709" type="curve"/>
      <point x="-945" y="-868" type="line" smooth="yes"/>
      <point x="-945" y="-884"/>
      <point x="-913" y="-900"/>
      <point x="-881" y="-900" type="curve" smooth="yes"/>
      <point x="-820" y="-900" type="line" smooth="yes"/>
      <point x="-780" y="-900"/>
      <point x="-731" y="-878"/>
      <point x="-707" y="-866" type="curve" smooth="yes"/>
      <point x="-655" y="-839"/>
      <point x="-615" y="-820"/>
      <point x="-595" y="-820" type="curve" smooth="yes"/>
      <point x="-576" y="-820"/>
      <point x="-535" y="-839"/>
      <point x="-483" y="-866" type="curve" smooth="yes"/>
      <point x="-459" y="-878"/>
      <point x="-410" y="-900"/>
      <point x="-371" y="-900" type="curve" smooth="yes"/>
      <point x="-310" y="-900" type="line" smooth="yes"/>
      <point x="-279" y="-900"/>
      <point x="-245" y="-884"/>
      <point x="-245" y="-868" type="curve" smooth="yes"/>
      <point x="-245" y="-308" type="line" smooth="yes"/>
      <point x="-245" y="-260"/>
      <point x="-386" y="-219"/>
      <point x="-533" y="-219" type="curve" smooth="yes"/>
      <point x="-655" y="-219"/>
      <point x="-731" y="-272"/>
      <point x="-780" y="-272" type="curve" smooth="yes"/>
      <point x="-799" y="-272"/>
      <point x="-807" y="-266"/>
      <point x="-807" y="-250" type="curve" smooth="yes"/>
      <point x="-807" y="-243"/>
      <point x="-799" y="-224"/>
      <point x="-792" y="-205" type="curve" smooth="yes"/>
      <point x="-784" y="-185"/>
      <point x="-777" y="-161"/>
      <point x="-777" y="-144" type="curve" smooth="yes"/>
      <point x="-777" y="-109"/>
      <point x="-828" y="-75"/>
      <point x="-890" y="-75" type="curve" smooth="yes"/>
      <point x="-942" y="-75"/>
      <point x="-964" y="-82"/>
      <point x="-983" y="-89" type="curve"/>
      <point x="-927" y="-89"/>
      <point x="-902" y="-123"/>
      <point x="-902" y="-139" type="curve" smooth="yes"/>
      <point x="-902" y="-153"/>
      <point x="-908" y="-172"/>
      <point x="-916" y="-192" type="curve" smooth="yes"/>
      <point x="-925" y="-214"/>
      <point x="-932" y="-238"/>
      <point x="-932" y="-258" type="curve" smooth="yes"/>
      <point x="-932" y="-296"/>
      <point x="-902" y="-333"/>
      <point x="-799" y="-333" type="curve" smooth="yes"/>
      <point x="-694" y="-333"/>
      <point x="-635" y="-280"/>
      <point x="-527" y="-280" type="curve" smooth="yes"/>
      <point x="-448" y="-280"/>
      <point x="-385" y="-299"/>
      <point x="-385" y="-325" type="curve" smooth="yes"/>
      <point x="-385" y="-799" type="line" smooth="yes"/>
      <point x="-385" y="-819"/>
      <point x="-389" y="-829"/>
      <point x="-407" y="-829" type="curve" smooth="yes"/>
      <point x="-415" y="-829"/>
      <point x="-460" y="-810"/>
      <point x="-513" y="-784" type="curve" smooth="yes"/>
      <point x="-540" y="-770"/>
      <point x="-568" y="-759"/>
      <point x="-595" y="-759" type="curve" smooth="yes"/>
      <point x="-623" y="-759"/>
      <point x="-650" y="-770"/>
      <point x="-677" y="-784" type="curve" smooth="yes"/>
      <point x="-730" y="-810"/>
      <point x="-775" y="-829"/>
      <point x="-783" y="-829" type="curve" smooth="yes"/>
      <point x="-801" y="-829"/>
      <point x="-805" y="-819"/>
    </contour>
    <contour>
      <point x="-1024" y="-602" type="curve" smooth="yes"/>
      <point x="-1024" y="-568"/>
      <point x="-983" y="-549"/>
      <point x="-945" y="-538" type="curve"/>
      <point x="-945" y="-667" type="line"/>
      <point x="-995" y="-657"/>
      <point x="-1024" y="-627"/>
    </contour>
  </outline>
  <guideline angle="0" x="0" y="-75"/>
  <guideline angle="90" x="-945" y="0"/>
</glyph>
<glyph name="uni17DD.ms.high2" format="2">
  <outline>
    <contour>
      <point x="-713" y="2493" type="curve" smooth="yes"/>
      <point x="-973" y="2493"/>
      <point x="-1129" y="2365"/>
      <point x="-1196" y="2223" type="curve" smooth="yes"/>
      <point x="-1206" y="2202"/>
      <point x="-1210" y="2184"/>
      <point x="-1210" y="2168" type="curve" smooth="yes"/>
      <point x="-1210" y="2131"/>
      <point x="-1185" y="2110"/>
      <point x="-1156" y="2110" type="curve" smooth="yes"/>
      <point x="-1129" y="2110"/>
      <point x="-1098" y="2127"/>
      <point x="-1077" y="2165" type="curve" smooth="yes"/>
      <point x="-1014" y="2279"/>
      <point x="-863" y="2333"/>
      <point x="-713" y="2333" type="curve" smooth="yes"/>
      <point x="-563" y="2333"/>
      <point x="-411" y="2279"/>
      <point x="-349" y="2165" type="curve" smooth="yes"/>
      <point x="-328" y="2127"/>
      <point x="-297" y="2110"/>
      <point x="-270" y="2110" type="curve" smooth="yes"/>
      <point x="-241" y="2110"/>
      <point x="-216" y="2131"/>
      <point x="-216" y="2168" type="curve" smooth="yes"/>
      <point x="-216" y="2184"/>
      <point x="-220" y="2202"/>
      <point x="-230" y="2223" type="curve" smooth="yes"/>
      <point x="-296" y="2364"/>
      <point x="-453" y="2493"/>
    </contour>
  </outline>
</glyph>
<glyph name="uni17DD.ms.narrowhigh2" format="2">
  <outline>
    <contour>
      <point x="-378" y="2560" type="curve" smooth="yes"/>
      <point x="-538" y="2560"/>
      <point x="-676" y="2432"/>
      <point x="-743" y="2290" type="curve" smooth="yes"/>
      <point x="-753" y="2269"/>
      <point x="-757" y="2251"/>
      <point x="-757" y="2235" type="curve" smooth="yes"/>
      <point x="-757" y="2198"/>
      <point x="-732" y="2177"/>
      <point x="-703" y="2177" type="curve" smooth="yes"/>
      <point x="-676" y="2177"/>
      <point x="-645" y="2194"/>
      <point x="-624" y="2232" type="curve" smooth="yes"/>
      <point x="-571" y="2328"/>
      <point x="-468" y="2400"/>
      <point x="-378" y="2400" type="curve" smooth="yes"/>
      <point x="-288" y="2400"/>
      <point x="-187" y="2328"/>
      <point x="-134" y="2232" type="curve" smooth="yes"/>
      <point x="-114" y="2196"/>
      <point x="-82" y="2179"/>
      <point x="-55" y="2179" type="curve" smooth="yes"/>
      <point x="-25" y="2179"/>
      <point x="-1" y="2198"/>
      <point x="-1" y="2235" type="curve" smooth="yes"/>
      <point x="-1" y="2250"/>
      <point x="-5" y="2269"/>
      <point x="-15" y="2290" type="curve" smooth="yes"/>
      <point x="-81" y="2431"/>
      <point x="-218" y="2560"/>
    </contour>
  </outline>
</glyph>
<glyph name="uni200B.aaattmpt" format="2">
  <anchor x="-418" y="0" name="L"/>
  <anchor x="-418" y="3369" name="U"/>
  <outline>
    <contour>
      <point x="-445" y="41" type="line"/>
      <point x="-460" y="41" type="line"/>
      <point x="-460" y="29" type="line"/>
      <point x="-445" y="29" type="line"/>
    </contour>
  </outline>
</glyph>
